<svg xmlns="http://www.w3.org/2000/svg" viewBox="0 0 64 64"><defs><style>.cls-1,.cls-2{fill:none;stroke:#000;stroke-linejoin:round;stroke-width:2px;}.cls-1{stroke-linecap:round;}</style></defs><g id="amulet"><circle cx="8.93" cy="35.4" r="1.07"></circle><circle cx="57.93" cy="34.4" r="1.07"></circle><line class="cls-1" x1="49.55" y1="22.05" x2="52.55" y2="25.05"></line><line class="cls-1" x1="52.55" y1="22.05" x2="49.55" y2="25.05"></line><circle class="cls-1" cx="15" cy="22" r="2"></circle><circle class="cls-1" cx="32" cy="43" r="17"></circle><circle class="cls-1" cx="32" cy="23.5" r="2.5"></circle><line class="cls-1" x1="32" y1="13" x2="32" y2="23"></line><path class="cls-1" d="M5.92,6C9,11.76,19.51,16,32,16S55,11.76,58.08,6"></path><polyline class="cls-2" points="36.92 26.73 32 32.18 27.08 26.73"></polyline><polyline class="cls-2" points="46.98 34.97 39.65 35.35 40.03 28.02"></polyline><polyline class="cls-2" points="48.27 47.92 42.82 43 48.27 38.08"></polyline><polyline class="cls-2" points="40.03 57.98 39.65 50.65 46.98 51.03"></polyline><polyline class="cls-2" points="27.08 59.27 32 53.82 36.92 59.27"></polyline><polyline class="cls-2" points="17.02 51.03 24.35 50.65 23.97 57.98"></polyline><polyline class="cls-2" points="15.73 38.08 21.18 43 15.73 47.92"></polyline><polyline class="cls-2" points="23.97 28.02 24.35 35.35 17.02 34.97"></polyline><rect class="cls-1" x="29" y="40" width="6" height="6" transform="translate(-21.03 35.22) rotate(-45)"></rect><line class="cls-1" x1="24" y1="43" x2="28" y2="43"></line><line class="cls-1" x1="36" y1="43" x2="40" y2="43"></line><line class="cls-1" x1="32" y1="39" x2="32" y2="36"></line><line class="cls-1" x1="32" y1="47" x2="32" y2="50"></line></g></svg>