<svg xmlns="http://www.w3.org/2000/svg" xml:space="preserve" width="1.70666in" height="1.70666in" version="1.1" style="shape-rendering:geometricPrecision; text-rendering:geometricPrecision; image-rendering:optimizeQuality; fill-rule:evenodd; clip-rule:evenodd" viewBox="0 0 1706.66 1706.66" xmlns:xlink="http://www.w3.org/1999/xlink" xmlns:xodm="http://www.corel.com/coreldraw/odm/2003">
 <defs>
  <style type="text/css">
   
    .fil0 {fill:black}
   
  </style>
 </defs>
 <g id="Layer_x0020_1">
  <metadata id="CorelCorpID_0Corel-Layer"></metadata>
  <path class="fil0" d="M946.44 1111.52c-5.31,0 -10.39,-2.11 -14.15,-5.86l-277.98 -278c-7.82,-7.81 -7.82,-20.47 0,-28.28l793.5 -793.52c8.91,-8.91 23.84,-7.44 30.83,3.1 136.43,206.13 107.51,435.09 -83.61,662.13l-434.44 434.58c-3.76,3.74 -8.84,5.85 -14.15,5.85zm-249.7 -297.99l249.7 249.7 418.55 -418.56c174.08,-207.14 205.46,-406.45 93.43,-592.83l-761.68 761.69z"></path>
  <path class="fil0" d="M946.44 1007.12c-17.64,0 -26.81,-21.51 -14.15,-34.16l381.09 -381.09c134.48,-134.48 174.33,-291.43 112.19,-441.92 -10.01,-24.23 26.94,-39.52 36.97,-15.25 68.69,166.4 25.76,338.81 -120.87,485.46l-381.09 381.11c-3.9,3.9 -9.02,5.85 -14.13,5.85z"></path>
  <path class="fil0" d="M510.53 1706.65c-5.31,0 -10.39,-2.11 -14.14,-5.87l-347.16 -347.16c-7.81,-7.83 -7.81,-20.48 0,-28.3l408.51 -408.49c7.82,-7.82 20.47,-7.82 28.28,0l259.72 259.72c7.82,7.82 7.82,20.49 0,28.3l-287.33 287.33 73.29 73.28c7.81,7.82 7.81,20.48 0,28.3l-107.03 107.03c-3.75,3.76 -8.83,5.87 -14.14,5.87zm-318.87 -367.18l318.87 318.88 78.74 -78.75 -73.29 -73.28c-7.81,-7.83 -7.81,-20.48 0,-28.3l287.33 -287.33 -231.43 -231.43 -380.21 380.2z"></path>
  <path class="fil0" d="M585.7 1456.59c-5.31,0 -10.39,-2.11 -14.14,-5.86l-259.72 -259.72c-7.81,-7.83 -7.81,-20.48 0,-28.31l188.26 -188.26c7.82,-7.82 20.47,-7.82 28.28,0l259.72 259.72c7.82,7.82 7.82,20.49 0,28.29l-188.26 188.26c-3.75,3.76 -8.83,5.87 -14.14,5.87zm-231.43 -279.73l231.44 231.44 159.97 -159.98 -231.44 -231.42 -159.97 159.96z"></path>
  <path class="fil0" d="M887.06 1253.89c-13.25,0 -25.7,-5.14 -35.03,-14.49l-331.48 -331.46c-19.31,-19.31 -19.31,-50.73 0,-70.04l65.26 -65.25c18.65,-18.68 51.37,-18.68 70.04,0l331.5 331.48c19.31,19.3 19.31,50.74 0,70.04l-65.25 65.25c-9.35,9.33 -21.8,14.47 -35.04,14.47zm-266.22 -455.73c-8.41,0 -62.37,58.36 -72.02,68 -3.65,3.65 -3.65,9.83 0,13.48l331.5 331.46c3.69,3.69 9.78,3.69 13.46,0 9.62,-9.65 68.02,-63.61 68.02,-71.98 0,-1.47 -0.36,-4.35 -2.75,-6.72l-331.46 -331.49c-2.41,-2.39 -5.25,-2.75 -6.74,-2.75z"></path>
  <path class="fil0" d="M443.52 1192.13c-17.63,0 -26.79,-21.52 -14.14,-34.15l65.97 -65.96c18.65,-18.64 46.9,9.69 28.28,28.29 -19.94,19.92 -64.7,71.82 -80.11,71.82z"></path>
  <path class="fil0" d="M516.99 1265.6c-17.63,0 -26.79,-21.52 -14.13,-34.16l65.97 -65.97c18.62,-18.65 46.89,9.69 28.28,28.29 -19.95,19.93 -64.69,71.84 -80.11,71.84z"></path>
  <path class="fil0" d="M590.46 1339.07c-17.63,0 -26.79,-21.52 -14.13,-34.16l65.97 -65.97c18.62,-18.65 46.89,9.69 28.28,28.29 -19.96,19.95 -64.69,71.84 -80.11,71.84z"></path>
 </g>
</svg>