<svg version="1.1" xmlns="http://www.w3.org/2000/svg" xmlns:xlink="http://www.w3.org/1999/xlink" x="0px" y="0px" viewBox="0 0 64 64" style="enable-background:new 0 0 64 64;" xml:space="preserve">
<g id="Layer_1">
</g>
<g id="Layer_2">
	<g>
		<path d="M35.7,15.9h-7.5c-5.3,0-9.6,4.3-9.6,9.6v4.1h26.7v-4.1C45.3,20.2,41,15.9,35.7,15.9z"></path>
		<path d="M18.7,46.9c0,5.3,4.3,9.6,9.6,9.6h7.5c5.3,0,9.6-4.3,9.6-9.6v-4.1H18.7V46.9z"></path>
		<path d="M26.6,14.3h10.8c1.4,0,2.6-1.2,2.6-2.6V7.5H24v4.2C24,13.1,25.2,14.3,26.6,14.3z"></path>
		<polygon points="30.5,30.9 30.5,34.7 26.7,34.7 26.7,37.6 30.5,37.6 30.5,41.5 33.5,41.5 33.5,37.6 37.3,37.6 37.3,34.7 
			33.5,34.7 33.5,30.9 		"></polygon>
	</g>
</g>
</svg>