<svg xmlns="http://www.w3.org/2000/svg" xml:space="preserve" width="0.297598in" height="0.302083in" version="1.1" style="shape-rendering:geometricPrecision; text-rendering:geometricPrecision; image-rendering:optimizeQuality; fill-rule:evenodd; clip-rule:evenodd" viewBox="0 0 298 302" xmlns:xlink="http://www.w3.org/1999/xlink">
 <defs>
  <style type="text/css">
   
    .fil0 {fill:black;fill-rule:nonzero}
   
  </style>
 </defs>
 <g id="Layer_x0020_1">
  <metadata id="CorelCorpID_0Corel-Layer"></metadata>
  <path class="fil0" d="M148 82c12,57 -63,95 -107,52l-30 15 -10 -21 27 -14c-8,-17 -5,-35 5,-51l100 0 84 -43 33 13 -102 49zm-11 -4l95 -47 -9 -4 -88 44 -96 0c-9,17 -7,32 1,47l-29 13 1 7 31 -14c41,43 110,10 94,-46z"></path>
  <path class="fil0" d="M220 72c24,0 47,17 47,40 0,23 -23,39 -47,39 -24,0 -47,-16 -47,-39 0,-23 23,-40 47,-40zm0 9c-19,0 -38,12 -38,31 0,18 19,31 38,31 19,0 37,-13 37,-31 0,-19 -18,-31 -37,-31z"></path>
  <path class="fil0" d="M150 0c159,0 210,187 50,233 2,17 2,69 -19,69 -10,-1 -13,-7 -16,-17 -3,10 -10,17 -21,17 -7,0 -12,-7 -15,-16 -3,9 -9,16 -20,16 -21,0 -21,-54 -19,-72 -159,-57 -88,-230 60,-230zm0 10c-143,0 -202,163 -49,213 -2,10 -6,69 8,69 20,0 15,-41 16,-58l9 0c0,10 -1,58 10,58 20,0 16,-43 17,-58l9 1c0,9 0,59 11,57 13,0 10,-57 9,-67 160,-42 111,-215 -40,-215z"></path>
  <path class="fil0" d="M168 206c-17,24 -14,-29 -14,-36 18,2 23,23 14,36zm-4 -26c-18,-25 3,59 3,12 0,-5 -1,-9 -3,-12z"></path>
  <path class="fil0" d="M133 206c16,24 13,-28 13,-36 -17,2 -22,23 -13,36zm4 -26c17,-25 -4,59 -4,12 0,-5 2,-9 4,-12z"></path>
 </g>
</svg>