<svg width="101" height="101" viewBox="0 0 101 101" fill="none" xmlns="http://www.w3.org/2000/svg">
<path d="M78.725 91.2769C77.905 90.6099 77.031 90.0639 76.186 89.5359C74.84 88.6949 73.568 87.9009 72.861 86.8059C71.974 85.4259 70.692 81.7589 70.068 79.8359C70.099 79.8059 70.123 79.7789 70.154 79.7479C71.959 77.9819 71.918 75.9699 71.609 75.0589C71.52 74.7949 71.359 74.5619 71.145 74.3849C71.145 74.3849 70.039 73.4699 68.264 72.0009L57.074 7.59192C57.004 7.19192 56.775 6.83592 56.439 6.60792C56.102 6.37992 55.689 6.29692 55.29 6.38092C53.953 6.65992 49.476 7.67992 48.028 9.08392C46.884 10.2019 46.017 13.4629 45.697 14.8129C45.649 15.0169 45.644 15.2279 45.682 15.4339L52.664 52.8939C52.811 53.6829 53.549 54.2149 54.348 54.1039L57.416 53.6719L59.827 65.0229C54.894 60.9439 49.463 56.4549 46.018 53.6129C42.652 50.8369 38.324 46.1219 34.138 41.5629C27.654 34.4989 23.552 30.1359 21.056 29.4769C18.776 28.8719 16.466 31.0659 15.297 32.4279C13.687 34.3029 11.262 38.1669 12.389 40.7559C12.389 40.7569 12.39 40.7579 12.39 40.7589C13.767 43.9059 24.382 54.3939 26.936 56.8209C32.114 61.7429 41.293 69.1549 47.832 73.6959L49.424 74.8029C55 78.6879 59.405 81.7569 64.74 83.3919C64.957 83.4579 65.166 83.4899 65.37 83.4899C66.179 83.4899 66.907 82.9909 67.707 82.2369C68.389 84.2199 69.434 87.0229 70.339 88.4309C71.41 90.0909 73.03 91.1029 74.596 92.0809C75.399 92.5819 76.157 93.0559 76.832 93.6039C77.11 93.8309 77.445 93.9399 77.777 93.9399C78.213 93.9399 78.645 93.7509 78.942 93.3859C79.465 92.7449 79.368 91.7999 78.725 91.2769ZM60.059 51.6799C59.895 50.9089 59.167 50.3989 58.383 50.5059L55.35 50.9329L48.69 15.1999C49.138 13.4089 49.79 11.5969 50.12 11.2329C50.518 10.8469 52.345 10.1919 54.391 9.66892L64.708 69.0589C64.331 68.7469 63.945 68.4279 63.548 68.0999L60.059 51.6799ZM65.255 80.4089C60.523 78.8789 56.366 75.9829 51.139 72.3419L49.543 71.2319C43.217 66.8399 34.003 59.3999 29.002 54.6469C24.055 49.9439 16.004 41.5299 15.139 39.5589C14.918 39.0439 15.506 36.8789 17.421 34.5629C18.927 32.7419 20.044 32.3279 20.29 32.3779C22.063 32.8459 27.533 38.8049 31.928 43.5919C36.183 48.2269 40.582 53.0189 44.109 55.9279C48.331 59.4109 55.533 65.3649 61.147 70.0079C61.152 70.0129 61.159 70.0169 61.164 70.0219C62.956 71.5039 64.585 72.8519 65.903 73.9419C65.918 73.9549 65.932 73.9659 65.947 73.9779C67.24 75.0479 68.232 75.8679 68.772 76.3149C68.738 76.6059 68.591 77.0819 68.056 77.6049C67.57 78.0809 67.122 78.5499 66.712 78.9799C66.236 79.4769 65.614 80.1289 65.255 80.4089Z" fill="black" stroke="black" stroke-width="2.2"></path>
</svg>