<svg version="1.1" xmlns="http://www.w3.org/2000/svg" xmlns:xlink="http://www.w3.org/1999/xlink" x="0px" y="0px" viewBox="0 0 64 64" style="enable-background:new 0 0 64 64;" xml:space="preserve">
<g id="Layer_1">
</g>
<g id="Layer_2">
	<g>
		<path d="M50.2,22h-8v-3.5c0-1.9-1.5-3.4-3.4-3.4H25.3c-1.9,0-3.4,1.5-3.4,3.4V22h-8c-2.3,0-4.1,1.8-4.1,4.1v8h12.9
			c0.3-2.1,1.3-3.9,2.7-5.3c1.4-1.4,3.3-2.4,5.4-2.7C31.1,26,31.5,26,32,26s0.9,0,1.4,0.1c2.1,0.3,4,1.3,5.4,2.7
			c1.4,1.4,2.4,3.3,2.7,5.3h12.8v-8C54.3,23.9,52.4,22,50.2,22z M39.5,22H24.5v-3.5c0-0.4,0.3-0.7,0.7-0.7h13.4
			c0.4,0,0.7,0.3,0.7,0.7V22z M41.4,36.8C40.8,41.4,36.8,45,32,45s-8.8-3.6-9.4-8.2H9.8v8.1c0,2.3,1.8,4.1,4.1,4.1h36.4
			c2.3,0,4.1-1.8,4.1-4.1v-8.1H41.4z"></path>
		<polygon points="38.7,34.2 38.7,36.8 33.3,36.8 33.3,42.2 30.7,42.2 30.7,36.8 25.3,36.8 25.3,34.2 30.7,34.2 30.7,28.8 
			33.3,28.8 33.3,34.2 		"></polygon>
	</g>
	<polygon points="38.7,34.2 38.7,36.8 25.3,36.8 25.3,34.2 30.7,34.2 30.7,34.2 33.3,34.2 33.3,34.2 	"></polygon>
</g>
</svg>