<svg xmlns="http://www.w3.org/2000/svg" xml:space="preserve" width="1.70666in" height="1.70666in" version="1.1" style="shape-rendering:geometricPrecision; text-rendering:geometricPrecision; image-rendering:optimizeQuality; fill-rule:evenodd; clip-rule:evenodd" viewBox="0 0 1707 1707" xmlns:xlink="http://www.w3.org/1999/xlink">
 <defs>
  <style type="text/css">
   
    .fil0 {fill:black}
   
  </style>
 </defs>
 <g id="Layer_x0020_1">
  <metadata id="CorelCorpID_0Corel-Layer"></metadata>
  <g id="_302827560">
   <g>
    <g>
     <g>
      <path class="fil0" d="M1376 1334c-183,0 -331,-148 -331,-331 0,-182 148,-331 331,-331 182,0 331,149 331,331 0,183 -149,331 -331,331zm0 -615c-157,0 -285,127 -285,284 0,157 128,284 285,284 157,0 284,-127 284,-284 0,-157 -127,-284 -284,-284z"></path>
     </g>
     <g>
      <path class="fil0" d="M1376 1179c-45,0 -84,-30 -96,-73 -4,-12 4,-25 16,-29 12,-3 25,4 29,17 6,22 27,38 51,38 29,0 53,-23 53,-52 0,-30 -24,-53 -53,-53 -55,0 -100,-45 -100,-100 0,-55 45,-100 100,-100 44,0 84,30 96,73 3,13 -4,26 -16,29 -13,4 -26,-4 -29,-16 -6,-23 -27,-39 -51,-39 -29,0 -53,24 -53,53 0,29 24,53 53,53 55,0 99,45 99,100 0,54 -44,99 -99,99z"></path>
     </g>
     <g>
      <path class="fil0" d="M1376 874c-13,0 -24,-10 -24,-23l0 -45c0,-13 11,-24 24,-24 13,0 23,11 23,24l0 45c0,12 -10,23 -23,23z"></path>
     </g>
     <g>
      <path class="fil0" d="M1376 1224c-13,0 -24,-10 -24,-23l0 -45c0,-13 11,-24 24,-24 13,0 23,11 23,24l0 45c0,13 -10,23 -23,23z"></path>
     </g>
    </g>
    <g>
     <path class="fil0" d="M607 478l-67 0c-13,0 -23,-10 -23,-23 0,-13 10,-24 23,-24l67 0c13,0 24,11 24,24 0,13 -11,23 -24,23z"></path>
    </g>
    <g>
     <path class="fil0" d="M570 567c-13,0 -23,-11 -23,-23l0 -22c0,-13 10,-23 23,-23 13,0 24,10 24,23l0 22c0,12 -11,23 -24,23z"></path>
    </g>
    <g>
     <path class="fil0" d="M901 478l-68 0c-13,0 -23,-10 -23,-23 0,-13 10,-24 23,-24l68 0c13,0 23,11 23,24 0,13 -11,23 -23,23z"></path>
    </g>
    <g>
     <path class="fil0" d="M864 567c-13,0 -24,-11 -24,-23l0 -22c0,-13 11,-23 24,-23 12,0 23,10 23,23l0 22c0,12 -11,23 -23,23z"></path>
    </g>
    <g>
     <path class="fil0" d="M737 609l-34 0c-13,0 -23,-10 -23,-23 0,-13 10,-24 23,-24l34 0c13,0 23,11 23,24 0,13 -10,23 -23,23z"></path>
    </g>
    <g>
     <path class="fil0" d="M720 725c-40,0 -77,-24 -94,-60 -6,-12 -1,-25 11,-31 12,-5 26,0 31,11 10,20 30,33 52,33 22,0 43,-13 52,-33 6,-12 20,-17 31,-11 12,6 17,19 12,31 -18,36 -55,60 -95,60z"></path>
    </g>
    <g>
     <path class="fil0" d="M720 880c-186,0 -337,-151 -337,-337l0 -196c0,-186 151,-337 337,-337 186,0 337,151 337,337l0 196c0,186 -151,337 -337,337zm0 -823c-160,0 -290,130 -290,290l0 197c0,160 130,290 290,290 160,0 290,-130 290,-290l0 -197c0,-160 -130,-290 -290,-290z"></path>
    </g>
    <g>
     <path class="fil0" d="M889 381c-71,0 -149,-9 -184,-45 -38,-38 -193,-4 -290,33 -12,4 -26,-2 -30,-14 -5,-12 1,-26 13,-30 44,-16 267,-94 339,-22 42,41 202,35 293,21 13,-2 25,6 27,19 2,13 -7,25 -20,27 -13,2 -77,11 -148,11z"></path>
    </g>
    <g>
     <path class="fil0" d="M1366 1697l-1292 0c-41,0 -74,-34 -74,-75l0 -283c0,-197 160,-358 358,-358l84 0c13,0 24,11 24,24 0,13 -11,23 -24,23l-84 0c-172,0 -311,140 -311,311l0 283c0,16 12,28 27,28l1292 0c15,0 28,-12 28,-28l0 -283c0,-9 -1,-19 -2,-29 -1,-13 9,-24 22,-25 12,-1 24,8 25,21 1,11 1,22 1,33l0 283c0,41 -33,75 -74,75zm-298 -669l-70 0c-13,0 -23,-10 -23,-23 0,-13 10,-24 23,-24l70 0c13,0 23,11 23,24 0,13 -10,23 -23,23z"></path>
    </g>
    <g>
     <path class="fil0" d="M384 1697c-13,0 -24,-11 -24,-24l0 -308c0,-13 11,-24 24,-24 13,0 23,11 23,24l0 308c0,13 -10,24 -23,24z"></path>
    </g>
    <g>
     <path class="fil0" d="M1057 1697c-13,0 -24,-11 -24,-24l0 -308c0,-13 11,-24 24,-24 13,0 23,11 23,24l0 308c0,13 -10,24 -23,24z"></path>
    </g>
    <g>
     <path class="fil0" d="M559 1240c-2,0 -4,0 -6,0 -6,-2 -12,-6 -15,-12 -39,-76 -98,-188 -111,-206 -2,-2 -4,-4 -5,-6 -6,-11 -2,-25 9,-31 0,-1 1,-1 1,-1l144 -72c10,-5 22,-2 29,6l133 163c4,4 6,11 5,17 0,7 -4,12 -9,16l-162 121c-4,4 -8,5 -13,5zm-83 -226c16,26 42,75 90,168l121 -90 -107 -130 -104 52zm-23 11l0 1c-1,0 -3,1 -5,1 2,0 4,-1 5,-2z"></path>
    </g>
    <g>
     <path class="fil0" d="M882 1240c-5,0 -10,-1 -14,-5l-162 -121c-5,-4 -8,-9 -9,-16 -1,-6 1,-12 5,-17l134 -163c7,-8 19,-11 28,-6l144 72c1,0 1,0 2,1 10,6 14,20 8,31 -1,2 -3,4 -5,6 -12,18 -71,130 -110,206 -4,6 -9,10 -16,12 -2,0 -3,0 -5,0zm-128 -149l120 91c48,-93 75,-142 90,-168l-104 -52 -106 129zm233 -66c2,1 4,2 5,2 -1,0 -3,-1 -4,-2l-1 0z"></path>
    </g>
    <g>
     <path class="fil0" d="M784 1264l-127 0c-9,0 -17,-5 -21,-13l-35 -71c-5,-10 -2,-22 7,-29l98 -74c9,-6 20,-6 29,0l98 74c9,7 12,19 7,29l-35 71c-4,8 -12,13 -21,13zm-113 -47l98 0 21 -40 -70 -52 -69 52 20 40z"></path>
    </g>
    <g>
     <path class="fil0" d="M856 1697l-271 0c-7,0 -14,-3 -18,-8 -4,-6 -6,-13 -5,-19l72 -433c1,-12 11,-20 23,-20l127 0c11,0 21,8 23,20l72 433c1,6 -1,13 -5,19 -5,5 -11,8 -18,8zm-244 -47l216 0 -64 -386 -88 0 -64 386z"></path>
    </g>
    <g>
     <path class="fil0" d="M720 1119c-7,0 -13,-3 -18,-9l-133 -162c-4,-4 -6,-10 -6,-15l0 -106c0,-8 4,-16 11,-20 7,-4 15,-5 23,-1 38,18 80,28 123,28 43,0 85,-10 124,-28 7,-4 16,-3 22,1 7,4 11,12 11,20l0 106c0,5 -2,11 -5,15l-134 162c-4,6 -11,9 -18,9zm-110 -194l110 134 111 -134 0 -63c-71,24 -150,24 -221,0l0 63 0 0z"></path>
    </g>
   </g>
  </g>
 </g>
</svg>