<svg xmlns="http://www.w3.org/2000/svg" viewBox="0 0 64 64"><title>1</title><g id="Layer_38" data-name="Layer 38"><path d="M57.46,37.6l.25-.23a7.6,7.6,0,0,0-5.38-13h-.09a7.34,7.34,0,0,0,.83-3.4V20.6a7.4,7.4,0,0,0-7.4-7.4h-.94a7.34,7.34,0,0,0,.83-3.4V9.4A7.4,7.4,0,0,0,38.19,2H25.81a7.4,7.4,0,0,0-7.4,7.4V9.8a7.34,7.34,0,0,0,.83,3.4h-.94a7.4,7.4,0,0,0-7.4,7.4V21a7.34,7.34,0,0,0,.83,3.4h-.09A7.58,7.58,0,0,0,6.54,37.6l-.25.23a7.6,7.6,0,0,0,5.38,13h.09a7.34,7.34,0,0,0-.83,3.4v.41a7.4,7.4,0,0,0,7.4,7.4H45.69a7.4,7.4,0,0,0,7.4-7.4V54.2a7.34,7.34,0,0,0-.83-3.4h.09A7.58,7.58,0,0,0,57.46,37.6ZM22.41,9.4A3.4,3.4,0,0,1,25.81,6H38.19a3.4,3.4,0,0,1,3.4,3.4V9.8a3.4,3.4,0,0,1-3.4,3.4H25.81a3.4,3.4,0,0,1-3.4-3.4Zm-7.5,11.2a3.4,3.4,0,0,1,3.4-3.4H45.69a3.4,3.4,0,0,1,3.4,3.4V21a3.4,3.4,0,0,1-3.4,3.4H18.31a3.4,3.4,0,0,1-3.4-3.4Zm34.17,34a3.4,3.4,0,0,1-3.4,3.4H18.31a3.4,3.4,0,0,1-3.4-3.4V54.2a3.4,3.4,0,0,1,3.4-3.4H45.69a3.4,3.4,0,0,1,3.4,3.4ZM8.06,32a3.54,3.54,0,0,1,1.05-2.54,3.58,3.58,0,0,1,2.55-1.05H52.34a3.6,3.6,0,1,1,0,7.2H40.5a8.73,8.73,0,0,0-17,0H11.66A3.61,3.61,0,0,1,8.06,32Zm28.69,5.6A4.74,4.74,0,1,1,32,32.86,4.75,4.75,0,0,1,36.74,37.6Zm18.14,8.14a3.58,3.58,0,0,1-2.55,1.05H11.66a3.6,3.6,0,1,1,0-7.2H23.49a8.75,8.75,0,0,0,17,0H52.34a3.61,3.61,0,0,1,3.6,3.6A3.54,3.54,0,0,1,54.89,45.74Z"></path></g></svg>