<svg version="1.1" xmlns="http://www.w3.org/2000/svg" xmlns:xlink="http://www.w3.org/1999/xlink" x="0px" y="0px" width="512px" height="512px" viewBox="0 0 512 512" style="enable-background:new 0 0 512 512;" xml:space="preserve">
<g id="B_-_173_x2C__handshake_x2C__Agreement_x2C__business_x2C__hands_x2C__partners_x2C__partnership">
	<g>
		<g>
			<path d="M215.67,382.207c-6.457,0-12.445-3.448-15.626-8.998c-2.002-3.447-2.701-7.332-2.246-11.061l-5.965,3.457
				c-2.729,1.553-5.804,2.367-8.916,2.367c-6.442,0-12.432-3.448-15.63-8.999c-1.992-3.475-2.679-7.383-2.213-11.123l-2.048,1.181
				c-2.705,1.566-5.793,2.396-8.925,2.396c-6.419,0-12.392-3.432-15.587-8.957c-2.022-3.502-2.744-7.386-2.304-11.104l-4.658,2.708
				c-2.701,1.555-5.774,2.373-8.901,2.373c0,0-0.001,0-0.001,0c-6.444-0.001-12.436-3.415-15.638-8.91
				c-2.419-4.226-3.038-9.115-1.756-13.792c1.264-4.61,4.231-8.437,8.354-10.773l21.589-12.518c0.335-0.194,0.694-0.331,1.063-0.408
				c0.252-0.271,0.546-0.502,0.871-0.685l1.636-0.919c1.705-0.957,3.862-0.378,4.857,1.306l10.533,17.817l90.85,52.453
				c0.058,0.033,0.114,0.067,0.169,0.104c0.17,0.11,0.409,0.223,0.711,0.365c0.186,0.087,0.374,0.176,0.564,0.271
				c1.184,0.592,1.947,1.785,1.988,3.108c0.04,1.322-0.649,2.561-1.795,3.223l-22.054,12.751
				C221.865,381.393,218.787,382.207,215.67,382.207z M208.119,348.411c1.228,0,2.423,0.629,3.095,1.76
				c1.007,1.693,0.464,3.882-1.218,4.908c-4.953,3.021-6.622,9.541-3.722,14.534c1.914,3.338,5.51,5.4,9.396,5.4
				c1.871,0,3.718-0.488,5.342-1.413l16.557-9.572l-87.825-50.706c-0.536-0.31-0.983-0.752-1.298-1.285l-8.732-14.771
				c-0.271,0.152-0.563,0.271-0.869,0.35c-0.563,0.145-1.147,0.15-1.701,0.023l-19.958,11.571c-2.477,1.404-4.24,3.684-4.995,6.436
				c-0.772,2.818-0.4,5.763,1.048,8.292c1.904,3.269,5.516,5.313,9.41,5.314c0,0,0,0,0.001,0c1.869,0,3.702-0.486,5.299-1.406
				l16.802-9.767c1.699-0.986,3.876-0.43,4.889,1.254c1.013,1.684,0.488,3.869-1.179,4.908c-4.934,3.074-6.602,9.637-3.719,14.628
				c1.913,3.308,5.499,5.363,9.358,5.363c1.868,0,3.709-0.494,5.326-1.431l14.139-8.15c1.707-0.984,3.886-0.411,4.89,1.281
				c1.004,1.694,0.46,3.88-1.221,4.905c-4.925,3.004-6.589,9.53-3.711,14.55c1.914,3.322,5.515,5.391,9.393,5.391
				c1.867,0,3.711-0.488,5.334-1.412l18.069-10.471C206.887,348.568,207.507,348.411,208.119,348.411z"></path>
		</g>
		<g>
			<path d="M251.378,368.931c-3.499,0-6.949-0.93-9.977-2.689l-91.658-52.919c-0.538-0.311-0.986-0.755-1.301-1.29l-11.551-19.62
				c-0.657-1.116-0.663-2.499-0.017-3.621l10.733-18.629l46.054-79.704c0.854-1.479,2.63-2.154,4.251-1.614
				c1.621,0.54,2.638,2.146,2.434,3.841c-0.345,2.868,1.378,6.331,4.728,9.499c12.305,11.527,30.804,13.118,48.961,13.118
				l0.968-0.001c0.004,0,0.008,0,0.012,0c0.603,0,1.196,0.151,1.725,0.441l0.256,0.14c0.043,0.023,0.085,0.047,0.126,0.072
				l116.354,69.849c0.535,0.321,0.978,0.777,1.284,1.321c3.422,6.088,3.387,13.638-0.093,19.703
				c-3.545,6.143-10.21,9.953-17.399,9.953c-3.459,0-6.867-0.896-9.855-2.589l-6.294-3.657c0.778,4.468,0.07,9.208-2.339,13.374
				c-3.54,6.138-10.166,9.953-17.289,9.953c-3.496,0-6.937-0.932-9.95-2.694l-3.239-1.868c0.791,4.485,0.086,9.254-2.33,13.451
				c-3.545,6.143-10.16,9.956-17.266,9.957c-3.494,0-6.941-0.932-9.971-2.695l-7.722-4.459c0.791,4.48,0.087,9.24-2.33,13.423
				C265.144,365.115,258.512,368.931,251.378,368.931z M154.161,307.565l90.847,52.452c1.939,1.127,4.139,1.72,6.37,1.72
				c4.571,0,8.815-2.437,11.077-6.357c3.436-5.946,1.466-13.709-4.39-17.307c-1.676-1.029-2.214-3.215-1.207-4.905
				s3.187-2.258,4.889-1.273l20.598,11.896c1.942,1.13,4.139,1.725,6.361,1.725c4.544-0.001,8.772-2.436,11.034-6.356
				c3.434-5.965,1.479-13.731-4.362-17.311c-1.677-1.028-2.217-3.213-1.212-4.904c1.007-1.691,3.185-2.26,4.889-1.278l16.101,9.282
				c1.932,1.131,4.116,1.722,6.337,1.722c4.56,0,8.798-2.437,11.061-6.357c3.436-5.942,1.465-13.705-4.392-17.309
				c-1.677-1.032-2.213-3.22-1.202-4.909c1.011-1.691,3.194-2.254,4.895-1.264l19.142,11.124c1.875,1.062,4.056,1.634,6.274,1.634
				c4.627,0,8.905-2.432,11.164-6.347c2.071-3.611,2.231-8.055,0.469-11.794l-114.867-68.951c-19.634,0-39.751-1.826-53.892-15.073
				c-1.939-1.835-3.497-3.771-4.649-5.753l-51.341,88.898L154.161,307.565z"></path>
		</g>
		<g>
			<path d="M137.943,297.731c-0.61,0-1.227-0.155-1.793-0.481l-49.755-28.692c-0.826-0.478-1.43-1.263-1.677-2.184
				c-0.248-0.922-0.119-1.904,0.358-2.73l66.187-114.693c0.993-1.719,3.191-2.31,4.911-1.318l49.784,28.693
				c1.72,0.991,2.312,3.187,1.323,4.908l-3.578,6.228c-0.22,0.383-0.509,0.722-0.852,1c-1.452,1.18-2.318,2.637-2.503,4.215
				c-0.057,0.486-0.213,0.956-0.458,1.379l-58.829,101.877C140.395,297.086,139.186,297.731,137.943,297.731z M93.105,264.123
				l43.524,25.1l56.693-98.178c0.532-2.907,2.087-5.6,4.454-7.708l1.479-2.573l-43.558-25.104L93.105,264.123z"></path>
		</g>
		<g>
			<path d="M126.421,267.874C126.421,267.874,126.421,267.874,126.421,267.874c-2.243,0-4.463-0.597-6.421-1.726
				c-6.099-3.546-8.173-11.377-4.637-17.465c2.242-3.929,6.498-6.385,11.093-6.385c2.21,0,4.394,0.576,6.314,1.665
				c6.109,3.542,8.214,11.394,4.723,17.521C135.193,265.437,130.957,267.874,126.421,267.874z M126.457,249.492
				c-2.019,0-3.881,1.065-4.859,2.781c-1.559,2.683-0.652,6.104,2.007,7.65c0.856,0.493,1.834,0.758,2.817,0.758c0,0,0,0,0,0
				c2.014,0,3.823-1.042,4.839-2.787c1.525-2.677,0.605-6.14-2.069-7.69C128.381,249.744,127.425,249.492,126.457,249.492z"></path>
		</g>
		<g>
			<path d="M420.079,261.454c-1.243,0-2.451-0.646-3.118-1.799l-54.686-94.714c-0.477-0.826-0.605-1.808-0.359-2.729
				c0.247-0.921,0.851-1.707,1.677-2.184l51.543-29.753c1.719-0.993,3.919-0.404,4.913,1.316l54.689,94.714
				c0.477,0.826,0.605,1.808,0.359,2.729c-0.247,0.921-0.851,1.707-1.677,2.184l-51.547,29.753
				C421.308,261.298,420.689,261.454,420.079,261.454z M370.304,164.459l51.089,88.484l45.317-26.157l-51.093-88.484
				L370.304,164.459z"></path>
		</g>
		<g>
			<path d="M371.625,292.484c-0.636,0-1.275-0.168-1.85-0.513l-115.753-69.476c-19.629,0-39.742-1.829-53.879-15.073
				c-6.195-5.809-8.488-12.829-6.135-18.778c1.723-4.357,7.432-11.667,26.303-11.667c6.815,0,14.711,0.979,23.469,2.911
				c1.16,0.258,2.301,0.383,3.493,0.383c0.001,0,0.001,0,0.002,0c4.456,0,8.869-1.814,13.541-3.733
				c5.328-2.189,11.366-4.67,18.317-4.67c8.534,0,17.094,3.785,26.12,11.559l5.531-1.63c1.575-0.464,3.264,0.197,4.104,1.606
				l1.099,1.84l14.749,25.625l44.005,76.223c0.819,1.42,0.575,3.214-0.595,4.362C373.456,292.132,372.545,292.484,371.625,292.484z
				 M255.016,215.301c0.652,0,1.292,0.177,1.851,0.513l104.708,62.846l-51.443-89.171l-4.753,1.401
				c-1.199,0.354-2.502,0.057-3.431-0.784c-8.32-7.535-15.57-11.044-22.815-11.044c-5.531,0-10.414,2.006-15.583,4.13
				c-5.112,2.101-10.399,4.273-16.274,4.273c0,0-0.002,0-0.002,0c-1.7,0-3.398-0.186-5.049-0.553
				c-8.243-1.818-15.618-2.741-21.913-2.741c-10.519,0-17.851,2.661-19.614,7.119c-1.227,3.102,0.405,7.171,4.365,10.884
				c12.316,11.538,30.816,13.128,48.973,13.128l0.969-0.001C255.007,215.301,255.012,215.301,255.016,215.301z"></path>
		</g>
		<g>
			<path d="M377.225,302.12c-1.242,0-2.451-0.646-3.117-1.799l-66.214-114.623c-0.994-1.72-0.405-3.92,1.314-4.914l49.781-28.762
				c0.826-0.477,1.808-0.606,2.73-0.36c0.922,0.247,1.708,0.85,2.185,1.676l66.188,114.693c0.477,0.826,0.605,1.809,0.358,2.729
				c-0.247,0.922-0.851,1.707-1.677,2.185l-49.755,28.692C378.452,301.965,377.835,302.12,377.225,302.12z M315.921,185.214
				l62.617,108.397l43.525-25.1l-62.591-108.46L315.921,185.214z"></path>
		</g>
		<g>
			<path d="M391.111,271.392c-3.432,0-6.649-1.342-9.061-3.778c-4.956-4.903-4.969-13,0-18.022c2.413-2.435,5.63-3.775,9.061-3.775
				s6.647,1.34,9.058,3.772c4.971,5.024,4.958,13.122-0.025,18.051C397.76,270.049,394.543,271.392,391.111,271.392z
				 M391.111,253.009c-1.497,0-2.899,0.583-3.949,1.643c-2.177,2.2-2.188,5.733-0.025,7.874c1.077,1.087,2.479,1.671,3.975,1.671
				c1.495,0,2.896-0.584,3.946-1.644c2.19-2.168,2.179-5.702,0-7.904C394.01,253.593,392.607,253.009,391.111,253.009z"></path>
		</g>
		<g>
			<path d="M91.896,261.453c-0.626,0-1.247-0.163-1.799-0.482l-51.52-29.752c-1.72-0.994-2.309-3.193-1.316-4.913l54.688-94.714
				c0.477-0.826,1.263-1.429,2.185-1.676c0.921-0.248,1.903-0.117,2.729,0.36l51.494,29.753c1.719,0.994,2.309,3.192,1.316,4.912
				l-54.662,94.714c-0.477,0.826-1.263,1.43-2.184,1.677C92.521,261.413,92.208,261.453,91.896,261.453z M45.29,226.788
				l45.29,26.155l51.067-88.484l-45.266-26.155L45.29,226.788z"></path>
		</g>
		<g>
			<path d="M311.339,172.406c-0.862,0-1.727-0.308-2.416-0.933c-17.217-15.619-27.51-11.376-38.405-6.884
				c-6.565,2.706-13.354,5.503-21.303,3.766c-26.195-5.827-36.099-1.059-39.141,1.262c-1.579,1.205-3.836,0.902-5.041-0.678
				c-1.205-1.58-0.901-3.836,0.678-5.041c8.24-6.286,24.239-7.199,45.054-2.567c5.738,1.253,10.963-0.898,17.013-3.392
				c11.313-4.664,25.395-10.466,45.98,8.207c1.471,1.335,1.582,3.609,0.247,5.081C313.294,172.009,312.318,172.406,311.339,172.406z
				"></path>
		</g>
	</g>
</g>
<g id="Layer_1">
</g>
</svg>