<svg version="1.1" id="Layer_1" xmlns="http://www.w3.org/2000/svg" xmlns:xlink="http://www.w3.org/1999/xlink" x="0px" y="0px" viewBox="0 0 53 53" style="enable-background:new 0 0 53 53;" xml:space="preserve">
<g>
	<g>
		<path d="M36.52005,20.5475197c0,1.3699951-1.1099854,2.4699707-2.4700317,2.4699707h-0.1199951
			c-0.5599976,3.6300049-3.0000019,6.6400146-6.2999897,8c0.0499878,0.2300415,0.0700073,0.4700317,0.0700073,0.7200317v1.7600098
			h0.6499634c1.8600464,0,3.6200562,0.3899536,5.2000141,1.1099854c-0.3499756,0.3399658-0.6799927,0.7199707-0.9899902,1.1199951
			c-2.0499897-1.4100342-4.5299702-2.2299805-7.2100239-2.2299805h-0.6499634v-1.7600098
			c0-0.25-0.0200195-0.4899902-0.0700073-0.7200317c3.2999878-1.3599854,5.7399902-4.3699951,6.2999878-8h0.1199951
			c1.3600483,0,2.4700336-1.0999756,2.4700336-2.4699707c0-1.0800171-0.7000122-1.9899902-1.6700459-2.3300171
			c0.2400532-0.4500122,0.3700581-0.9500122,0.3700581-1.4699707v-0.2800293c0.6799927,0,1.25-0.5599976,1.25-1.2600098v-1.5200195
			c0-0.6899414-0.5700073-1.2599487-1.25-1.2599487h-0.1400146c-0.6699848-5.1300054-4.7300434-9.2000122-9.8599873-9.8800049
			c0.3699951-0.0499878,0.75-0.0800171,1.1299438-0.0900269c0.1200562-0.0100098,0.2300415-0.0100098,0.3500366-0.0100098
			s0.2299805,0,0.3499756,0.0100098c5.6700439,0.1699829,10.2999897,4.4500122,11.0300312,9.9700317h0.1400146
			c0.6799927,0,1.25,0.5700073,1.25,1.2599487v1.5200195c0,0.7000122-0.5700073,1.2600098-1.25,1.2600098v0.2800293
			c0,0.5199585-0.1300049,1.0199585-0.3700562,1.4699707C35.8200378,18.5575294,36.52005,19.4675026,36.52005,20.5475197z"></path>
		<path d="M32.5595703,36.227356c-0.0976563,0-0.1962891-0.0288086-0.2827148-0.0878906
			c-2.0375977-1.4013672-4.4331055-2.1420898-6.9267578-2.1420898h-0.6499023c-0.2763672,0-0.5-0.2236328-0.5-0.5v-1.7597656
			c0-0.2319336-0.019043-0.4326172-0.0585938-0.6132813c-0.0517578-0.2368164,0.0737305-0.4770508,0.2978516-0.5693359
			c3.1762695-1.3085938,5.4736328-4.2260742,5.996582-7.6137695c0.0375977-0.2436523,0.2475586-0.4238281,0.4941406-0.4238281
			h0.1196289c1.0864258,0,1.9702148-0.8837891,1.9702148-1.9697266c0-0.831543-0.5366211-1.578125-1.3354492-1.8583984
			c-0.1376953-0.0478516-0.2470703-0.1538086-0.300293-0.2900391c-0.0532227-0.1357422-0.0439453-0.2880859,0.0244141-0.4165039
			c0.206543-0.3881836,0.3115234-0.8037109,0.3115234-1.2353516v-0.2797852c0-0.2763672,0.2236328-0.5,0.5-0.5
			c0.4135742,0,0.75-0.3408203,0.75-0.7602539v-1.5200195c0-0.4116211-0.3432617-0.7597656-0.75-0.7597656h-0.1401367
			c-0.2509766,0-0.4633789-0.1860352-0.4956055-0.4350586c-0.6416016-4.9130859-4.5195313-8.7983398-9.4301758-9.4492188
			c-0.2480469-0.0327148-0.4335938-0.2441406-0.434082-0.4946289s0.1845703-0.4628906,0.4326172-0.496582
			c0.387207-0.0527344,0.7856445-0.0839844,1.1835938-0.0947266c0.2148438-0.0185547,0.4873047-0.0200195,0.7539063,0.0014648
			c5.7324219,0.1713867,10.4833984,4.3481445,11.4243164,9.9936523c0.8251953,0.1411133,1.4555664,0.8652344,1.4555664,1.7348633
			v1.5200195c0,0.796875-0.5292969,1.472168-1.2529297,1.6879883c-0.0146484,0.3686523-0.0854492,0.7280273-0.2104492,1.0737305
			c0.9223633,0.5234375,1.5131836,1.503418,1.5131836,2.5786133c0,1.5351563-1.1708984,2.8017578-2.6669922,2.9545898
			c-0.6665039,3.4277344-2.9873047,6.3696289-6.1713867,7.8208008c0.0126953,0.1313477,0.0185547,0.269043,0.0185547,0.4145508
			v1.2597656h0.1499023c1.90625,0,3.7255859,0.3886719,5.4072266,1.1552734
			c0.1503906,0.0688477,0.2568359,0.2070313,0.2851563,0.3696289s-0.0258789,0.3291016-0.144043,0.4438477
			c-0.3110352,0.3022461-0.628418,0.6616211-0.9433594,1.0673828C32.8569336,36.1604614,32.7094727,36.227356,32.5595703,36.227356z
			 M31.1020508,34.3040161c0.4638672,0.2236328,0.9160156,0.4755859,1.3540039,0.7548828
			c0.0771484-0.0927734,0.1547852-0.1831055,0.2324219-0.2709961C32.171875,34.5896606,31.6425781,34.4280396,31.1020508,34.3040161
			z M25.2001953,32.9973755h0.1499023c0.6235352,0,1.2412109,0.0429688,1.8500977,0.1274414v-1.387207
			c0-0.2319336-0.019043-0.4326172-0.0585938-0.6132813c-0.0517578-0.2368164,0.0737305-0.4770508,0.2978516-0.5693359
			c3.1762695-1.3085938,5.4736328-4.2260742,5.996582-7.6137695c0.0375977-0.2436523,0.2475586-0.4238281,0.4941406-0.4238281
			h0.1196289c1.0864258,0,1.9702148-0.8837891,1.9702148-1.9697266c0-0.831543-0.5366211-1.578125-1.3354492-1.8583984
			c-0.1376953-0.0478516-0.2470703-0.1538086-0.300293-0.2900391c-0.0532227-0.1357422-0.0439453-0.2880859,0.0244141-0.4165039
			c0.206543-0.3881836,0.3115234-0.8037109,0.3115234-1.2353516v-0.2797852c0-0.2763672,0.2236328-0.5,0.5-0.5
			c0.4135742,0,0.75-0.3408203,0.75-0.7602539v-1.5200195c0-0.4116211-0.3432617-0.7597656-0.75-0.7597656h-0.1401367
			c-0.2509766,0-0.4628906-0.1860352-0.4956055-0.4345703c-0.6196289-4.684082-4.081543-8.3364258-8.5483398-9.2939453
			c3.3745117,1.6806641,5.840332,4.9057617,6.4790039,8.753418c0.8251953,0.1416016,1.4550781,0.8657227,1.4550781,1.7348633
			v1.5200195c0,0.796875-0.5292969,1.472168-1.2529297,1.6879883c-0.0146484,0.3686523-0.0854492,0.7280273-0.2104492,1.0737305
			c0.9223633,0.5234375,1.5131836,1.503418,1.5131836,2.5786133c0,1.5351563-1.1708984,2.8017578-2.6669922,2.9545898
			c-0.6665039,3.4277344-2.9873047,6.3696289-6.1713867,7.8208008c0.0126953,0.1313477,0.0185547,0.269043,0.0185547,0.4145508
			V32.9973755z"></path>
	</g>
	<g>
		<path d="M49.3500061,43.2175026c0,4.9799805-3.6599731,7.3099976-8.1899414,7.3099976
			c-0.4000244,0-0.8000488-0.0200195-1.1800537-0.0599976c-0.1699829,0.0599976-0.3499756,0.0900269-0.5299683,0.0900269
			c0,0,6.8999634-2.3600464,6.8999634-7.3400269c0-4.4199829-2.8799438-9.4199829-6.6799927-10.5l-0.2199707-0.3599854
			l1.1400146-1.6300049c0.4299927-0.6099854-0.0300293-1.4299927-0.7800293-1.4299927
			c-0.539978,0-1.1099854-0.1600342-1.6499634-0.6199951c-0.1800537-0.1600342-0.3700562-0.2900391-0.5600586-0.3900146
			c0.1400146-0.2200317,0.3600464-0.3800049,0.6400146-0.4199829c0.8300171-0.1100464,1.9500122-0.0300293,2.9200439,0.8099976
			c0.539978,0.4599609,1.1099854,0.6199951,1.6499634,0.6199951c0.75,0,1.210022,0.8200073,0.7800293,1.4299927L42.27005,32.617527
			C46.27005,33.4474831,49.3500061,38.6474953,49.3500061,43.2175026z"></path>
		<path d="M39.4501953,51.0574341c-0.2441406,0-0.4526367-0.1767578-0.4931641-0.4179688
			c-0.0400391-0.2407227,0.1000977-0.4755859,0.3310547-0.5551758c0.0654297-0.0224609,6.5620117-2.3056641,6.5620117-6.8666992
			c0-4.4575195-2.8925781-9.0458984-6.3168945-10.019043c-0.1210938-0.0341797-0.2246094-0.1132813-0.2900391-0.2202148
			l-0.2197266-0.3598633c-0.1035156-0.1699219-0.0966797-0.3842773,0.0170898-0.5473633l1.1396484-1.6303711
			c0.1206055-0.1708984,0.0703125-0.3276367,0.0297852-0.4057617c-0.0771484-0.1484375-0.2265625-0.2373047-0.3999023-0.2373047
			c-0.7338867,0-1.3979492-0.2490234-1.9741211-0.7392578c-0.1518555-0.1352539-0.3071289-0.2431641-0.46875-0.3286133
			c-0.1240234-0.0654297-0.2148438-0.1791992-0.2504883-0.3144531c-0.0356445-0.1347656-0.0131836-0.2788086,0.0620117-0.3969727
			c0.2280273-0.3579102,0.5800781-0.5874023,0.9907227-0.6459961c0.8920898-0.1186523,2.1865234-0.0522461,3.3178711,0.9272461
			c0.3925781,0.3344727,0.8261719,0.4980469,1.3227539,0.4980469c0.5458984,0,1.0390625,0.2978516,1.2875977,0.7768555
			c0.2431641,0.4692383,0.2060547,1.0083008-0.0991211,1.440918l-0.9116211,1.3056641
			c4.0205078,1.3413086,6.7631836,6.6337891,6.7631836,10.8964844c0,4.8173828-3.3295898,7.8100586-8.6899414,7.8100586
			c-0.3808594,0-0.7617188-0.0175781-1.1269531-0.0522461C39.8452148,51.0300903,39.6494141,51.0574341,39.4501953,51.0574341z
			 M40.0849609,32.3225708c4.059082,1.3525391,6.7651367,6.6547852,6.7651367,10.8950195
			c0,3.3959961-2.8754883,5.6147461-5.0039063,6.7919922c4.4008789-0.2329102,7.0039063-2.734375,7.0039063-6.7919922
			c0-4.1264648-2.7441406-9.293457-6.6816406-10.1103516c-0.1645508-0.0341797-0.3007813-0.1489258-0.3632813-0.3051758
			c-0.0620117-0.15625-0.0415039-0.3330078,0.0546875-0.4707031l1.3198242-1.8901367
			c0.1210938-0.1713867,0.0708008-0.328125,0.0302734-0.40625c-0.0771484-0.1484375-0.2265625-0.2373047-0.3999023-0.2373047
			c-0.7338867,0-1.3979492-0.2490234-1.9741211-0.7392578c-0.762207-0.6601563-1.637207-0.7714844-2.3007813-0.71875
			c0.3769531,0.3061523,0.796875,0.4580078,1.2749023,0.4580078c0.5458984,0,1.0390625,0.2978516,1.2875977,0.7768555
			c0.2431641,0.4692383,0.2060547,1.0083008-0.0991211,1.440918L40.0849609,32.3225708z"></path>
	</g>
	<g>
		<g>
			<path d="M36.4501953,51.0574341H5.3598633c-1.21875,0-2.2099609-0.9912109-2.2099609-2.2099609v-2.5498047
				c0-0.6362305,0.0488281-1.2963867,0.1455078-1.9619141c0.1738281-1.1669922,0.5024414-2.3032227,0.9770508-3.3798828
				c0.5751953-1.324707,1.3764648-2.5498047,2.3798828-3.637207c2.5092773-2.7456055,6.0844727-4.3212891,9.8076172-4.3212891
				h0.4301758c0.2763672,0,0.5,0.2236328,0.5,0.5s-0.2236328,0.5-0.5,0.5h-0.4301758
				c-3.4433594,0-6.7495117,1.4570313-9.0708008,3.9975586c-0.9291992,1.0068359-1.6689453,2.137207-2.2006836,3.3618164
				c-0.4394531,0.9975586-0.7436523,2.0478516-0.9038086,3.1245117c-0.0893555,0.6162109-0.1347656,1.2280273-0.1347656,1.8164063
				v2.5498047c0,0.6669922,0.5429688,1.2099609,1.2099609,1.2099609h31.090332c0.1259766,0,0.2480469-0.0205078,0.3632813-0.0610352
				c0.0576172-0.0209961,0.1181641-0.03125,0.1767578-0.0288086c0.1142578,0.0107422,0.2631836,0.0463867,0.3632813,0.1464844
				c0.1953125,0.1953125,0.1953125,0.5117188,0,0.7070313c-0.0771484,0.0771484-0.1801758,0.1274414-0.2880859,0.1445313
				C36.8676758,51.0266724,36.6611328,51.0574341,36.4501953,51.0574341z"></path>
		</g>
		<g>
			<path d="M32.5595703,36.227356c-0.0976563,0-0.1962891-0.0283203-0.2827148-0.0878906
				c-2.0375977-1.4013672-4.4331055-2.1420898-6.9267578-2.1420898h-0.6499023c-0.2763672,0-0.5-0.2236328-0.5-0.5
				s0.2236328-0.5,0.5-0.5h0.6499023c2.6972656,0,5.2880859,0.8017578,7.4931641,2.3178711
				c0.2275391,0.1567383,0.2851563,0.4677734,0.1289063,0.6953125C32.875,36.1516724,32.71875,36.227356,32.5595703,36.227356z"></path>
		</g>
		<g>
			<g>
				<path d="M31.5302734,48.4075317H3.6499023c-0.2763672,0-0.5-0.2236328-0.5-0.5v-1.6098633
					c0-0.6362305,0.0488281-1.2963867,0.1455078-1.9619141c0.0356445-0.2456055,0.2460938-0.4282227,0.4946289-0.4282227h26.25
					c0.2763672,0,0.5,0.2236328,0.5,0.5s-0.2236328,0.5-0.5,0.5H4.2299805
					c-0.0532227,0.472168-0.0800781,0.9379883-0.0800781,1.3901367v1.1098633h27.3803711c0.2763672,0,0.5,0.2236328,0.5,0.5
					S31.8066406,48.4075317,31.5302734,48.4075317z"></path>
			</g>
			<g>
				<path d="M30.1699219,41.6575317H4.7299805c-0.168457,0-0.3256836-0.0849609-0.4179688-0.2255859
					c-0.0922852-0.1411133-0.1079102-0.3188477-0.0405273-0.4736328c0.5761719-1.3271484,1.3774414-2.5522461,2.3808594-3.6396484
					c0.0947266-0.1025391,0.2280273-0.1611328,0.3676758-0.1611328h24.3398438c0.2763672,0,0.5,0.2236328,0.5,0.5
					s-0.2236328,0.5-0.5,0.5H7.2416992c-0.684082,0.7675781-1.2612305,1.6054688-1.7216797,2.5h24.6499023
					c0.2763672,0,0.5,0.2236328,0.5,0.5S30.4462891,41.6575317,30.1699219,41.6575317z"></path>
			</g>
		</g>
		<g>
			<path d="M20.7900391,38.1575317c-2.4262695,0-4.3999023-1.9785156-4.3999023-4.4101563v-2.0097656
				c0-0.253418,0.0229492-0.5039063,0.0688477-0.7436523c0.0517578-0.2714844,0.3125-0.4467773,0.5849609-0.3974609
				c0.2709961,0.0517578,0.4492188,0.3134766,0.3974609,0.5849609c-0.0341797,0.1796875-0.0512695,0.3676758-0.0512695,0.5561523
				v2.0097656c0,1.8803711,1.5253906,3.4101563,3.3999023,3.4101563c1.8803711,0,3.4101563-1.5297852,3.4101563-3.4101563
				v-2.0097656c0-0.2319336-0.019043-0.4326172-0.0585938-0.6132813c-0.059082-0.2700195,0.1118164-0.5366211,0.3813477-0.5952148
				c0.2705078-0.059082,0.5366211,0.1113281,0.5952148,0.3813477c0.0551758,0.2519531,0.0820313,0.5224609,0.0820313,0.8271484
				v2.0097656C25.2001953,36.1790161,23.2216797,38.1575317,20.7900391,38.1575317z"></path>
		</g>
		<g>
			<path d="M32.0795898,12.9275513c-0.2470703,0-0.4619141-0.1831055-0.4951172-0.4345703
				C30.875,7.130188,26.4384766,3.1194458,21.034668,2.9573364c-0.1313477-0.0107422-0.2304688-0.0092773-0.3344727-0.0097656
				c-0.1049805,0.0019531-0.203125,0-0.3095703,0.0083008c-5.434082,0.1538086-9.8745117,4.1640625-10.5849609,9.5371094
				c-0.0361328,0.2729492-0.2880859,0.4663086-0.5610352,0.4301758c-0.2739258-0.0361328-0.4663086-0.2875977-0.4301758-0.5610352
				C9.5898438,6.4998169,14.4350586,2.1238403,20.3359375,1.9573364c0.2158203-0.0185547,0.487793-0.0200195,0.7543945,0.0014648
				c5.8706055,0.1757813,10.7114258,4.5517578,11.4853516,10.4033203c0.0361328,0.2734375-0.15625,0.5249023-0.4301758,0.5610352
				C32.1235352,12.9260864,32.1010742,12.9275513,32.0795898,12.9275513z"></path>
		</g>
		<g>
			<path d="M13.840332,12.9275513c-0.0136719,0-0.0268555-0.0004883-0.0405273-0.0014648
				c-0.2753906-0.0224609-0.4804688-0.2636719-0.4584961-0.5385742c0.4643555-5.7436523,3.3945313-10.1293945,6.9672852-10.4282227
				c0.2705078-0.0224609,0.5151367-0.0219727,0.7817383-0.0004883c3.5683594,0.2988281,6.4941406,4.6845703,6.9580078,10.4287109
				c0.0219727,0.2749023-0.1831055,0.5161133-0.4584961,0.5385742c-0.2763672,0.0200195-0.5161133-0.1831055-0.5385742-0.4584961
				c-0.4238281-5.2539063-2.965332-9.2543945-6.0429688-9.512207c-0.1054688-0.0083008-0.206543-0.0097656-0.3081055-0.0078125
				c-0.1049805,0.0019531-0.203125,0-0.3095703,0.0083008c-3.0820313,0.2578125-5.6279297,4.2583008-6.0522461,9.5117188
				C14.316884,12.7293091,14.0981445,12.9275513,13.840332,12.9275513z"></path>
		</g>
		<g>
			<path d="M23.0595703,12.9275513c-0.2695313,0-0.4916992-0.2143555-0.4995117-0.4858398
				c-0.1894531-6.6699219-1.4072266-9.4941406-1.8598633-9.4941406c-0.4555664,0-1.6806641,2.8242188-1.8701172,9.4941406
				c-0.0078125,0.2758789-0.2475586,0.4995117-0.5141602,0.4858398c-0.2758789-0.0078125-0.4936523-0.2382813-0.4858398-0.5141602
				c0.0498047-1.7475586,0.421875-10.4658203,2.8701172-10.4658203c2.4384766,0,2.8100586,8.7182617,2.8598633,10.4658203
				c0.0078125,0.2758789-0.2099609,0.5063477-0.4858398,0.5141602
				C23.0693359,12.9275513,23.0644531,12.9275513,23.0595703,12.9275513z"></path>
		</g>
		<g>
			<path d="M10.1801758,23.517395c-1.6376953,0-2.9702148-1.3320313-2.9702148-2.9697266
				c0-1.3217773,0.8945313-2.4946289,2.1757813-2.8515625c0.2670898-0.0737305,0.5415039,0.0805664,0.6157227,0.347168
				c0.0742188,0.2661133-0.0810547,0.5415039-0.347168,0.6157227c-0.8505859,0.2373047-1.4443359,1.0141602-1.4443359,1.8886719
				c0,1.0859375,0.8837891,1.9697266,1.9702148,1.9697266l0.2797852-0.0097656c0.2763672,0,0.5,0.2236328,0.5,0.5
				s-0.2236328,0.5-0.5,0.5L10.1801758,23.517395z"></path>
		</g>
		<g>
			<path d="M31.0498047,23.517395h-0.1196289c-0.2763672,0-0.5-0.2236328-0.5-0.5s0.2236328-0.5,0.5-0.5h0.1196289
				c1.0864258,0,1.9702148-0.8837891,1.9702148-1.9697266c0-0.831543-0.5366211-1.578125-1.3354492-1.8583984
				c-0.2602539-0.0913086-0.3974609-0.3764648-0.3061523-0.637207c0.0913086-0.2602539,0.3769531-0.3979492,0.637207-0.3061523
				c1.1987305,0.4199219,2.0043945,1.5458984,2.0043945,2.8017578C34.0200195,22.1853638,32.6875,23.517395,31.0498047,23.517395z"></path>
		</g>
		<g>
			<path d="M20.7001953,32.2874146c-5.9931641,0-10.8603516-4.8671875-10.8603516-10.8500977v-2.2397461
				c0-0.2763672,0.2236328-0.5,0.5-0.5s0.5,0.2236328,0.5,0.5v2.2397461c0,5.4311523,4.4189453,9.8500977,9.8500977,9.8500977
				c5.4414063,0,9.8598633-4.4189453,9.8598633-9.8500977v-2.2397461c0-0.2763672,0.2236328-0.5,0.5-0.5s0.5,0.2236328,0.5,0.5
				v2.2397461C31.5498047,27.4202271,26.6826172,32.2874146,20.7001953,32.2874146z"></path>
		</g>
		<g>
			<path d="M32.215332,16.9685669H9.1757813c-0.9702148,0-1.7592773-0.7890625-1.7592773-1.7592773v-1.5219727
				c0-0.9702148,0.7890625-1.7592773,1.7592773-1.7592773H32.215332c0.9702148,0,1.7592773,0.7890625,1.7592773,1.7592773v1.5219727
				C33.9746094,16.1795044,33.1855469,16.9685669,32.215332,16.9685669z M9.1757813,12.9280396
				c-0.418457,0-0.7592773,0.3408203-0.7592773,0.7592773v1.5219727c0,0.418457,0.3408203,0.7592773,0.7592773,0.7592773H32.215332
				c0.418457,0,0.7592773-0.3408203,0.7592773-0.7592773v-1.5219727c0-0.4116211-0.3476563-0.7592773-0.7592773-0.7592773H9.1757813
				z"></path>
		</g>
		<g>
			<path d="M16.4902344,24.0525513c-0.4926758,0-0.9887695-0.1586914-1.4057617-0.4814453l-5.0048828-3.9399414
				c-0.8779297-0.6816406-1.4038086-1.762207-1.4038086-2.8881836v-0.2744141c0-0.2763672,0.2236328-0.5,0.5-0.5H32.215332
				c0.2763672,0,0.5,0.2236328,0.5,0.5v0.2744141c0,1.1259766-0.5258789,2.206543-1.40625,2.8901367l-5,3.9243164
				c-0.918457,0.7255859-2.21875,0.6416016-3.0258789-0.1948242l-1.6762695-1.6762695
				c-0.2426758-0.2504883-0.5625-0.3857422-0.90625-0.387207c-0.0014648,0-0.003418,0-0.0048828,0
				c-0.3422852,0-0.6601563,0.1323242-0.8969727,0.3730469l-1.6958008,1.7070313
				C17.6650391,23.8250122,17.0800781,24.0525513,16.4902344,24.0525513z M9.6855469,16.9685669
				c0.0625,0.7363281,0.4301758,1.4248047,1.0097656,1.8745117l5.0043945,3.9394531
				c0.5141602,0.3974609,1.2412109,0.3515625,1.6923828-0.1064453l1.6958008-1.7070313
				c0.4262695-0.4335938,0.9619141-0.6635742,1.6166992-0.6699219c0.6157227,0.0024414,1.1889648,0.2460938,1.6152344,0.6860352
				l1.6767578,1.6767578c0.4545898,0.4707031,1.1801758,0.5151367,1.6938477,0.1103516l5.003418-3.9272461
				c0.5810547-0.4516602,0.9492188-1.1401367,1.0117188-1.8764648H9.6855469z"></path>
		</g>
		<g>
			<g>
				<ellipse cx="15.9265976" cy="19.9436684" rx="1.0014868" ry="1.3233932"></ellipse>
			</g>
			<g>
				<ellipse cx="25.4645672" cy="19.9436684" rx="1.0014868" ry="1.3233932"></ellipse>
			</g>
		</g>
		<g>
			<path d="M23.7000427,27.3768291c0,0.446394-0.3662663,0.8241177-0.8240471,0.8241177h-3.9372768
				c-0.446394,0-0.8126602-0.3777237-0.8126602-0.8241177c0-0.4577789,0.3662663-0.8240452,0.8126602-0.8240452h3.9372768
				C23.3337765,26.552784,23.7000427,26.9190502,23.7000427,27.3768291z"></path>
		</g>
	</g>
	<g>
		<path d="M36.6704102,33.2175903c-0.1699219,0-0.3354492-0.0864258-0.4291992-0.2431641l-2.0800781-3.4702148
			c-0.2470703-0.4067383-0.2724609-0.909668-0.0668945-1.3422852c0.2045898-0.4296875,0.6074219-0.7246094,1.0776367-0.7895508
			c0.8881836-0.1201172,2.1845703-0.0522461,3.3154297,0.9272461c0.3925781,0.3344727,0.8261719,0.4980469,1.3227539,0.4980469
			c0.5458984,0,1.0390625,0.2978516,1.2875977,0.7768555c0.2431641,0.4692383,0.2060547,1.0083008-0.0991211,1.440918
			l-1.3183594,1.8881836c-0.159668,0.2265625-0.4711914,0.2807617-0.6962891,0.1240234
			c-0.2265625-0.1582031-0.2817383-0.4702148-0.1240234-0.6962891l1.3198242-1.8901367
			c0.1210938-0.1713867,0.0708008-0.328125,0.0302734-0.40625c-0.0771484-0.1484375-0.2265625-0.2373047-0.3999023-0.2373047
			c-0.7338867,0-1.3979492-0.2490234-1.9741211-0.7392578c-0.8530273-0.7387695-1.8457031-0.7856445-2.5302734-0.6953125
			c-0.1928711,0.0268555-0.2797852,0.168457-0.3085938,0.2285156c-0.0288086,0.0610352-0.0854492,0.2226563,0.0200195,0.3964844
			l2.081543,3.4726563c0.1420898,0.2368164,0.0654297,0.5439453-0.171875,0.6855469
			C36.8466797,33.1946411,36.7578125,33.2175903,36.6704102,33.2175903z"></path>
	</g>
	<g>
		<path d="M38.1601563,51.0320435c-5.362793,0-8.6943359-2.9926758-8.6943359-7.8105469
			c0-5.1904297,3.7978516-11.2241211,8.6943359-11.2241211s8.6948242,6.0336914,8.6948242,11.2241211
			C46.8549805,48.0393677,43.5234375,51.0320435,38.1601563,51.0320435z M38.1601563,32.9973755
			c-4.262207,0-7.6943359,5.5932617-7.6943359,10.2241211c0,4.2646484,2.8764648,6.8105469,7.6943359,6.8105469
			c4.8183594,0,7.6948242-2.5458984,7.6948242-6.8105469C45.8549805,38.5906372,42.4223633,32.9973755,38.1601563,32.9973755z"></path>
	</g>
	<g>
		<path d="M38.1601563,47.6160278c-2.5527344,0-4.6298828-2.0771484-4.6298828-4.6298828
			c0-2.5532227,2.0771484-4.6303711,4.6298828-4.6303711c2.5532227,0,4.6303711,2.0771484,4.6303711,4.6303711
			C42.7905273,45.5388794,40.7133789,47.6160278,38.1601563,47.6160278z M38.1601563,39.3557739
			c-2.0014648,0-3.6298828,1.628418-3.6298828,3.6303711c0,2.0014648,1.628418,3.6298828,3.6298828,3.6298828
			c2.0019531,0,3.6303711-1.628418,3.6303711-3.6298828C41.7905273,40.9841919,40.1621094,39.3557739,38.1601563,39.3557739z"></path>
	</g>
</g>
</svg>