<svg xmlns="http://www.w3.org/2000/svg" xml:space="preserve" width="512px" height="512px" version="1.1" style="shape-rendering:geometricPrecision; text-rendering:geometricPrecision; image-rendering:optimizeQuality; fill-rule:evenodd; clip-rule:evenodd" viewBox="0 0 512 512" xmlns:xlink="http://www.w3.org/1999/xlink">
 <defs>
  <style type="text/css">
   
    .fil0 {fill:black}
   
  </style>
 </defs>
 <g id="Layer_x0020_1">
  <metadata id="CorelCorpID_0Corel-Layer"></metadata>
  <path class="fil0" d="M482 512l-452 0c-5,0 -8,-3 -8,-7l0 -229c0,-4 3,-7 8,-7l171 0 0 28 -140 0c-4,0 -7,3 -7,7l0 172c0,5 3,8 7,8l390 0c3,0 6,-3 6,-8l0 -172c0,-4 -3,-8 -7,-8l-139 0 0 -27 171 0c4,0 7,3 7,7l0 229c0,4 -3,7 -7,7zm-281 -200l0 60c0,4 3,7 7,7l96 0c4,0 7,-3 7,-7l0 -61 132 0 0 159 -375 0 0 -158 133 0zm14 -43l82 0 0 32c-1,1 -1,2 -1,3 0,1 0,1 1,2l0 59 -82 0 0 -96zm41 83c-15,0 -28,-13 -28,-28 0,-15 13,-27 28,-27 15,0 27,12 27,27 0,15 -12,28 -27,28zm0 -41c-8,0 -13,6 -13,13 0,8 5,13 13,13 7,0 13,-5 13,-13 0,-7 -6,-13 -13,-13z"></path>
  <path class="fil0" d="M304 94l0 -22c0,-4 -4,-7 -8,-7l-80 0c-4,0 -8,3 -8,7l0 22c-36,0 -73,0 -109,0 -18,0 -35,0 -52,0 -5,0 -10,0 -15,1 -4,0 -7,0 -10,1l0 -38c0,-32 26,-58 58,-58l351 0c32,0 58,26 58,58l0 38c-3,-1 -5,-1 -8,-1 -5,0 -10,0 -15,0 -18,-1 -35,-1 -53,-1 -36,0 -73,0 -109,0zm-81 0l0 -15 66 0 0 15c-11,0 -22,0 -33,0 -11,0 -22,0 -33,0z"></path>
  <path class="fil0" d="M57 182l-34 -64c-2,-3 0,-7 3,-9 3,-2 457,-2 460,0 3,2 5,6 3,10l-35 63c-6,-7 -16,-9 -25,-5l-88 0c-6,-3 -12,-5 -20,-5 -9,0 -19,3 -26,10 -2,-2 -4,-4 -6,-5l0 0 0 0c-7,-4 -14,-6 -21,-6 -3,0 -6,0 -8,1 -7,-14 -21,-23 -36,-23 -18,0 -33,12 -38,28l-104 0c-9,-4 -19,-2 -25,5zm145 -5c4,-8 13,-14 22,-14 10,0 19,6 23,14l-45 0z"></path>
  <path class="fil0" d="M33 255l34 -63c2,-3 6,-5 10,-3 0,1 1,1 1,2l87 0c-12,5 -21,17 -23,30 -18,2 -33,16 -36,34l-73 0zm166 -64l85 0c2,1 4,3 6,5 1,2 3,4 5,4 2,0 5,-1 6,-3 2,-3 4,-5 6,-6l29 0c7,4 12,12 12,21l0 2c0,2 0,5 2,6 3,1 5,2 7,1 4,-1 7,-2 9,-2 15,0 26,12 26,26 0,4 -1,7 -2,10l-92 0 -177 0c3,-11 13,-20 25,-20 0,0 0,0 1,0 1,0 1,0 2,0 3,0 5,-1 6,-3 2,-2 2,-4 1,-6 0,0 0,0 0,0 0,-14 12,-26 26,-26 3,0 5,1 7,1 3,1 5,0 7,-1 2,-2 3,-4 3,-7l0 -2zm156 0l79 0c0,-1 0,-1 1,-2 4,-2 8,0 10,3l34 63 -74 0c1,-3 1,-6 1,-9 0,-23 -18,-41 -40,-41 -2,0 -3,0 -5,1 -1,-6 -3,-11 -6,-15zm-200 34c0,0 0,0 0,0 0,0 0,0 0,0z"></path>
 </g>
</svg>