<svg id="a06a1ea6-55b9-4001-98d3-d57319ecba6e" data-name="Line" xmlns="http://www.w3.org/2000/svg" viewBox="0 0 64 64"><title>1</title><path d="M48.59907,48.02225C46.01524,45.43779,36.562,35.98511,33.94618,33.36935c-1.4095-1.56363-3.67633-1.88367-5.64791-2.13181a4.38242,4.38242,0,0,1-2.48021-1.25075l-3.09335-3.093a1.83056,1.83056,0,0,0-.32047-2.147c-.89011-.78017-1.89635-2.45581-3.31233-1.94865a.98629.98629,0,0,1,.91317-1.07729,7.00926,7.00926,0,0,0,5.68255-4.58043c.27658-.92468,1.64464-5.59932-.59542-5.19794l-2.28689.54716c1.41777-2.1721,4.0389-4.00379,6.36353-5.51453a2.90918,2.90918,0,0,0,.76946-.5315A1.00692,1.00692,0,0,0,29.629,4.855a3.90622,3.90622,0,0,0-1.3317-.26186c-4.056-.56365-9.074-.37644-12.11794,2.66469l-.42988-2.4302a1.00715,1.00715,0,0,0-1.44361-.71517c-.21739.11135-5.3225,2.809-5.534,8.70357a3.92014,3.92014,0,0,1-1.85249,3.36206,5.92915,5.92915,0,0,0-2.58676,3.67762C3.512,23.14885,5.566,26.05326,8.6059,27.21l4.13923,1.745a1.82611,1.82611,0,0,0,.33215,2.13981l1.49,1.491a1.81165,1.81165,0,0,0,2.15624.31931l3.0881,3.08768a4.44269,4.44269,0,0,1,1.258,2.4866c.21909,1.96572.56109,4.25618,2.11643,5.64925.6669.42082,15.447,15.991,16.05153,15.59676C43.9709,61.7374,53.10383,52.17247,48.59907,48.02225ZM7.96972,24.60615A4.0423,4.0423,0,0,1,7.97025,17.881a5.89886,5.89886,0,0,0,2.80167-5.00051A8.31256,8.31256,0,0,1,14.046,6.686l.52645,2.97623c-.72982,1.54538-.51856,3.30129-1.18251,4.87344a1.00076,1.00076,0,0,0,.55787,1.30045c1.65784.47533,1.72417-2.12385,1.94885-3.20661C16.15854,7.29121,21.9763,5.96178,26.421,6.39891c-.59463.41214-1.1579.83521-1.6689,1.25046-1.64882,1.40627-5.40675,4.40333-3.82142,6.41626.82547,1.04933,2.30883.32982,3.34268.13-.11693,2.69421-1.69747,5.18618-4.52975,5.54086a3.00378,3.00378,0,0,0-2.64039,3.44124l.12311,1.5722c-.1973.25886-.4117.50227-.62659.74678l-4.0833-2.35318c-1.78431-1.07547-1.41542-3.20759.05482-4.32439a1.00085,1.00085,0,0,0-1.36705-1.46168,6.76548,6.76548,0,0,0-1.4328,1.76647,4.33833,4.33833,0,0,0,1.747,5.75387l3.60269,2.0757c-.22234.18814-.448.36957-.68162.54348C13.33421,26.98037,8.88546,25.29933,7.96972,24.60615Zm6.65716,5.20868a16.92948,16.92948,0,0,0,5.00785-5.00745L20.905,26.0776A14.16066,14.16066,0,0,1,15.89753,31.086ZM47.58343,52.11025a11.03467,11.03467,0,0,1-5.6508,5.64932,2.47823,2.47823,0,0,1-1.91112.12507c-.28677-.12116-15.42037-15.17073-15.42037-15.17073-1.22989-1.06871-1.342-3.03251-1.552-4.52773C22.851,35.608,20.0673,33.4956,18.42566,31.7777a16.05528,16.05528,0,0,0,3.17574-3.17753c1.72933,1.64932,3.82852,4.4285,6.39944,4.6157,1.49944.246,3.45509.3327,4.53,1.56837l.93325.93316-2.77447,2.77368a3.11057,3.11057,0,0,0,.44025,4.67712,1.00089,1.00089,0,0,0,1.41562-1.41478l-.44012-.44061a.99646.99646,0,0,1-.00049-1.407L34.879,37.1323l9.53129,9.53154L41.64586,49.437a1.0284,1.0284,0,0,1-1.41673,0l-4.85254-4.853a1.00059,1.00059,0,0,0-1.41473,1.41482l4.852,4.853a3.01966,3.01966,0,0,0,4.24774-.001l2.76348-2.772c.40534.46,1.69064,1.51885,1.8824,2.13985A2.43338,2.43338,0,0,1,47.58343,52.11025Z"></path><path d="M36.53391,32.23988H50.14722a1.00061,1.00061,0,0,0,0-2.001H36.53391A1.00061,1.00061,0,0,0,36.53391,32.23988Z"></path><path d="M58.863,34.788H43.0709a1.00061,1.00061,0,0,0,0,2.001H58.863A1.00061,1.00061,0,0,0,58.863,34.788Z"></path><path d="M54.50537,39.33819h-5.9869a1.0006,1.0006,0,0,0,0,2.001h5.98686A1.0006,1.0006,0,0,0,54.50537,39.33819Z"></path></svg>