<svg version="1.1" id="Layer_1" xmlns="http://www.w3.org/2000/svg" xmlns:xlink="http://www.w3.org/1999/xlink" x="0px" y="0px" viewBox="0 0 320.5898 287.1746" enable-background="new 0 0 320.5898 287.1746" xml:space="preserve">
<g>
	<path d="M240.0434,77.024c-9.7138,12.1796-5.7175,20.054,8.9291,17.5881c14.6442-2.4656,34.3914-14.3376,44.1052-26.5172
		c9.7139-12.1797,5.7151-20.0536-8.9291-17.588C269.5019,52.9728,249.7573,64.8443,240.0434,77.024z M246.0091,77.4722
		c3.5527,5.2496,20.3529,2.2336,20.3529,2.2336C237.1798,95.7302,246.0091,77.4722,246.0091,77.4722z"></path>
	<path d="M70.2022,279.3387c-0.5508,1.7822-1.4283,3.418-2.5458,4.8593c1.2819-0.5173,2.5855-1.1261,3.8861-1.7969
		C70.9926,281.4384,70.5354,280.4167,70.2022,279.3387z"></path>
	<path d="M318.3942,110.9252l-8.8276,2.9082c1.6285-3.7522-0.0385-4.9299-0.1409-4.9969c-0.7736-0.5095-2.8687,0.1078-4.6628,1.3936
		c-1.7919,1.2836-2.6308,2.7267-1.8554,3.235c0.0471,0.0379,0.7328,0.6507-0.0355,2.574l-31.6103,10.414
		c21.2299-33.9315-0.0849-30.8899-4.0509-30.0767l-45.4601,7.6539c-0.1348,0.0227-0.2754,0.0567-0.4125,0.084
		c-6.3592,1.1241-27.2922,7.2047-59.9717,39.9725l-21.2492-2.2589c2.6086-2.2072,4.6391-3.2391,4.7707-3.3046
		c1.9502-0.9287,3.5693-2.4922,3.6621-3.5137c0.0938-1.0234-1.4512-1.0791-3.4014-0.1494
		c-0.2573,0.1225-4.6072,2.2327-9.5272,6.4897l-5.9386-0.6313c-3.9658-0.4375-21.4326,15.5039-17.457,15.9258l39.9473,4.2471
		c0.2305,0.0254,0.4746,0.0371,0.7295,0.0371c2.0869,0,4.9209-0.8174,7.9004-2.2939c3.3438-1.6572,6.5293-3.9756,8.7012-6.333
		c9.8401-10.6795,17.9685-18.0855,24.2914-23.1069l-37.7449,47.3262l-55.8024,55.8024v24.7285l73.8519-73.8519l5.5732-0.9384
		l-79.4251,79.425v13.1245c0,3.5364-1.213,6.7876-3.2286,9.387c5.5071-2.2219,11.4275-5.9818,15.6936-10.2479L213.932,172.7313
		c0.7426-0.7426,1.389-1.4659,1.97-2.1724c0.3513-0.3716,0.6872-0.7452,0.9867-1.1208l40.4425-50.7086
		c-1.2516,4.2392-4.6351,10.9087-11.9278,21.1832c-1.6123,2.2711-1.8452,4.1339-0.6371,5.0889
		c1.0767,0.8508,3.1993,0.9034,5.8887,0.1666c0.3285-0.09,0.665-0.1913,1.0095-0.3054l59.4264-19.5782
		C317.0035,123.337,324.3235,108.9611,318.3942,110.9252z"></path>
	<path d="M70.2011,94.9919c12.4278,0,22.5-10.0733,22.5-22.5c0-12.4268-10.0722-22.5-22.5-22.5c-12.4257,0-22.5,10.0732-22.5,22.5
		C47.7011,84.9186,57.7753,94.9919,70.2011,94.9919z M74.8268,72.6976c6.5523-2.4536,10.4413-8.2359,11.863-4.4439
		c1.4198,3.7932-2.7398,8.8568-9.29,11.311c-6.5523,2.4536-13.0145,1.3676-14.4343-2.4255
		C61.5437,73.3463,68.2764,75.1508,74.8268,72.6976z"></path>
	<path d="M43.1561,177.8309v96.9804c0,6.8301,5.5371,12.3633,12.3633,12.3633c6.8281,0,12.3652-5.5332,12.3652-12.3633v-90.2715
		h4.6348v90.2715c0,6.8301,5.5371,12.3633,12.3633,12.3633c6.8281,0,12.3652-5.5332,12.3652-12.3633v-98.0001v-18.9395v-9.0819
		v-13.0652l-20.6932,4.7814c-0.7656,0.1768-1.5479,0.2656-2.3252,0.2656c-4.8184,0-8.9424-3.2822-10.0293-7.9824
		c-1.2773-5.5342,2.1846-11.0762,7.7178-12.3555l33.9464-7.8438l0.3987,2.2687l-33.8275,7.8163
		c-4.3047,0.9951-6.9883,5.291-5.9941,9.5957c0.8555,3.6992,4.1475,6.2012,7.7881,6.2012c0.5957,0,1.2021-0.0674,1.8076-0.207
		l32.9993-7.6249l23.6979-5.4757c0.6685-0.1545,1.2922-0.3969,1.8748-0.6982c0.0498-0.0258,0.0995-0.0504,0.1487-0.0772
		c0.3468-0.1888,0.6771-0.3994,0.9877-0.6337c0.0347-0.0261,0.0671-0.0546,0.1014-0.0813c0.3047-0.2379,0.593-0.4933,0.8581-0.7703
		c0.0176-0.0184,0.037-0.0346,0.0545-0.0532c0.2623-0.2794,0.4977-0.5808,0.7168-0.8936c0.0472-0.0673,0.0949-0.1332,0.1402-0.2022
		c0.2075-0.3163,0.392-0.6467,0.5532-0.9895c0.0298-0.0636,0.0568-0.1283,0.085-0.193c0.1642-0.3746,0.3049-0.7597,0.4105-1.1577
		c0.0018-0.0067,0.0051-0.0126,0.0068-0.0193c0.0126-0.048,0.0184-0.096,0.03-0.144c0.0491-0.2019,0.0941-0.4049,0.1274-0.6113
		c0.0133-0.082,0.0198-0.1636,0.0305-0.2455c0.0228-0.1761,0.0447-0.3522,0.0557-0.5308c0.0072-0.1148,0.0062-0.2286,0.0085-0.343
		c0.0026-0.1437,0.0071-0.2869,0.0019-0.4317c-0.0051-0.1475-0.02-0.2931-0.0333-0.4393c-0.0103-0.1131-0.017-0.2257-0.0322-0.3391
		c-0.0232-0.1731-0.0573-0.3433-0.0916-0.5135c-0.0153-0.0761-0.0231-0.152-0.0407-0.2282
		c-0.0034-0.0147-0.0088-0.0284-0.0123-0.0431c-0.0402-0.1691-0.0916-0.3344-0.1425-0.4999
		c-0.0282-0.0919-0.0513-0.1865-0.0825-0.2767c-0.0405-0.1166-0.0908-0.2289-0.1367-0.3433
		c-0.325-0.8157-0.7715-1.5561-1.3194-2.2019c-0.0341-0.0404-0.0642-0.0838-0.0991-0.1235
		c-0.0594-0.0673-0.1252-0.1279-0.1868-0.1931c-0.7371-0.7836-1.6379-1.4228-2.6692-1.8635
		c-0.1028-0.0442-0.2032-0.0931-0.3079-0.1329c-0.088-0.0333-0.1804-0.0588-0.2701-0.0892
		c-0.1668-0.0569-0.3334-0.1138-0.5042-0.1596c-0.0133-0.0035-0.0257-0.0089-0.0391-0.0123
		c-5.4356-1.423-32.0312-8.2722-42.4045-8.862c-0.3394-0.0455-0.6832-0.0773-1.035-0.0773H50.8847
		c-0.9088,0-1.7769,0.165-2.5866,0.4529c-12.4336,2.9858-37.335,20.5196-44.989,26.0605c-1.8643,1.3496-3.0571,3.4365-3.2734,5.7275
		c-0.2168,2.291,0.564,4.5645,2.1421,6.2393l34.1289,36.2207c1.082,1.1489,2.4256,1.8964,3.8498,2.2575
		c0.6471,0.1641,1.3093,0.2562,1.9739,0.2562C42.4732,177.9048,42.8153,177.8748,43.1561,177.8309z M20.1528,134.9155
		c8.1339-5.5682,16.6348-10.9157,23.0034-14.3733V148.79v9.0817v1.4578l-2.9107-3.0892L20.1528,134.9155z"></path>
	<polygon points="126.8419,16.1237 92.3798,49.6679 94.1046,50.9082 129.5048,19.832 	"></polygon>
	<polygon points="100.7381,0.164 96.1911,0 84.4021,44.9043 86.5192,45.0732 	"></polygon>
	<polygon points="144.8773,47.7493 142.6058,43.8059 98.2757,57.5882 99.2523,59.472 	"></polygon>
</g>
</svg>