<svg version="1.1" viewBox="0 0 16 16" xmlns="http://www.w3.org/2000/svg" xmlns:xlink="http://www.w3.org/1999/xlink"><path d="M13.806,0.378418c-0.0522461,-0.166992 -0.187988,-0.294922 -0.35791,-0.336426c-0.168945,-0.0419921 -0.349121,0.0078125 -0.473145,0.131836c-1.61084,1.61084 -2.99512,1.42871 -4.45947,1.23633c-1.38086,-0.181641 -2.94287,-0.38623 -4.47412,1.14551c-0.0048828,0.0048828 -0.0097656,0.0102539 -0.0146484,0.0151367c-1.81366,1.97534 -1.32733,5.26868 -0.1026,6.82544l-3.92407,3.92407l0.707031,0.707031l3.95197,-3.95197c0.84436,0.644898 1.80603,0.944641 2.77246,0.944641c1.34033,0 2.67383,-0.533203 3.65576,-1.35645c2.89111,-2.42334 3.22119,-7.67334 2.71875,-9.28516Zm-3.36133,8.51855c-1.08447,0.910217 -3.31775,1.73523 -5.08319,0.475952l2.11951,-2.11951c0.723145,-0.071106 1.59009,-0.733154 1.72461,-0.867675c0.232422,-0.232422 0.36084,-0.541992 0.36084,-0.870605c0,-0.328613 -0.128418,-0.638184 -0.36084,-0.870605c-0.465332,-0.464844 -1.27686,-0.465332 -1.7417,0c-0.156189,0.156189 -1.02777,1.30225 -0.849121,2.06104l-1.96545,1.96545c-0.847778,-1.18921 -1.33136,-3.83911 0.106872,-5.41614c1.18066,-1.1748 2.2627,-1.03174 3.62939,-0.853516c1.37744,0.182129 2.91455,0.381836 4.59863,-0.905273c0.137207,1.8667 -0.35498,5.56982 -2.53955,7.40088Z" transform="translate(1.00001, 0.972644)"></path></svg>