<svg version="1.1" id="Layer_1" xmlns="http://www.w3.org/2000/svg" xmlns:xlink="http://www.w3.org/1999/xlink" x="0px" y="0px" viewBox="0 0 430.9707 311.5341" enable-background="new 0 0 430.9707 311.5341" xml:space="preserve">
<g>
	<path d="M157.5461,182.6444c-5.5768,5.5576-11.3018,12.2375-16.3399,18.499c0.6501,3.3022,1.2361,6.5768,1.7577,9.7118
		C147.8479,202.5069,153.5358,192.1001,157.5461,182.6444z"></path>
	<path d="M192.9241,230.1208l1.6248-0.0258c0,0-0.7936-29.0536-5.2977-50.3057c-2.4113,13.4687-3.2529,29.9781-3.546,40.3593
		c2.562,3.4114,5.0009,6.8088,7.2191,9.9877L192.9241,230.1208z"></path>
	<path d="M430.9707,311.5341V124.3215h-68.9723l-1.6284,4.7045l-4.459,9.4755l-12.8198,10.5901v22.2952l-17.2788,8.3606
		l-1.6719,15.6066l-0.7666,2.8109l-1.053,3.8608l-6.1749-17.1252l1.5286-0.5511c0,0-10.1713-27.2266-21.323-45.87
		c3.3122,21.4702,12.8566,48.9227,12.8566,48.9227l1.5287-0.5512l6.5974,18.2971l0.5881-0.2121l2.0516,5.6951l-1.0531,3.8615
		l-1.4689,5.3861l-7.8032,8.918l-0.3867,11.2104l-0.1709,4.9537l-0.1127,0.2549l-2.416-4.0211l0.5359-0.3221l-10.0221-16.6694
		l1.3927-0.8373c0,0-15.2606-24.7357-29.8175-40.8613c7.4149,20.4196,22.1042,45.4987,22.1042,45.4987l1.3926-0.8373
		l10.0221,16.6694l0.5358-0.3221l4.0464,6.7347l-1.1375,2.5718l-9.3438,21.1249l-16.1636,8.918l-6.725-3.6681l-2.396-1.3068
		l-0.361-5.2708l0.6238-0.0429l-1.3347-19.4043l1.6212-0.1115c0,0-2.3268-28.9711-7.9468-49.9557
		c-2.6938,21.5565-1.032,50.5733-1.032,50.5733l1.6212-0.1115l1.3347,19.4044l0.6238-0.0429l0.251,3.6648l-2.2607,0.6459
		l-23.5935,6.741l-1.5288-0.0826l-2.3146-0.1251l2.8525-16.1634l0.6158,0.1085l3.3747-19.1552l1.6003,0.2819
		c0,0,4.7144-28.6795,4.3101-50.3999c-7.8029,20.2745-13.1736,48.8384-13.1736,48.8384l1.6003,0.2819l-3.3748,19.1552l0.6158,0.1085
		l-2.9471,16.6995l-2.313-0.1251l-6.7185-0.3632l-2.7745-0.15l-10.1291-16.8586l0.5358-0.3222l-10.022-16.6694l1.3927-0.8373
		c0,0-15.2606-24.7357-29.8175-40.8613c7.4149,20.4196,22.1042,45.4987,22.1042,45.4987l1.3927-0.8373l10.022,16.6694l0.5359-0.3222
		l7.1132,11.8391l-3.5786-1.491l-3.3741-1.4058l-11.1007,6.0129l-2.2762,1.233l-0.0059-0.0018l-0.4684-30.1176l-0.244-0.4167
		c-0.0547-0.0932-2.1009-3.5998-5.0292-9.0044l0.0739,4.666l0.6252-0.0099l0.5211,33.5065l-2.3107-0.7032l-18.8011-5.7221
		l-20.4861-7.1257l-2.3829-0.8288l-1.285-14.6094l0.6229-0.055l-1.7099-19.3749l1.6187-0.1429c0,0-2.8868-28.9207-8.9117-49.7927
		c-2.2763,21.6046-0.0534,50.5839-0.0534,50.5839l1.6187-0.1429l1.7098,19.3749l0.6229-0.055l1.0533,11.9748l-2.4499-1.6077
		l-13.4429-8.8218l-6.9246-5.4919l-1.8081-1.4341l5.0097-7.4111l0.5181,0.35l10.8879-16.1172l0.3787,0.2558
		c-0.1638-3.5961-0.3193-8.0074-0.3929-12.8218c-3.7485,5.0458-6.0971,8.4376-6.0971,8.4376l1.3466,0.9097l-10.8878,16.1172
		l0.5181,0.35l-4.8168,7.1257l-1.8069-1.433l-2.0884-1.6564l-3.3447-22.2952l-0.5571-17.2787l-1.878-2.951l-1.4509-2.28
		l5.0814-10.4816l1.4622,0.7089c0,0,12.378-26.2969,17.9293-47.2998c-13.0501,17.3676-26.0278,43.3737-26.0278,43.3737
		l1.4622,0.7089l-3.5343,7.2905l-1.4509-2.28l-3.2983-5.1829l-8.3604-9.4753l-0.5576-18.9509l-8.918-15.6064l-4.3506-16.9668H0
		v187.2126H430.9707z"></path>
	<path d="M166.2144,42.7852l-8.0197,3.9701L145.0502,8.4462c-2.2402-6.5308-9.3477-10.0059-15.8799-7.7666
		c-6.5303,2.2402-10.0068,9.3501-7.7666,15.8799l17.7617,51.7676c0.4113,1.1988,1.0059,2.3085,1.7382,3.3109l3.0782-0.598
		L166.2144,42.7852z"></path>
	<path d="M96.348,107.87c0.79,0,1.5928-0.0757,2.3975-0.2319l55.8467-10.8491c2.9443-0.5718,5.585-2.1836,7.4395-4.5405
		l25.0054-31.7788c12.957,2.8801,26.0616,9.6651,36.7981,15.443l8.1614-15.3849c1.792-3.377,5.2813-5.4746,9.1074-5.4746
		c1.6699,0,3.3369,0.416,4.8203,1.2036c2.4287,1.2886,4.2119,3.4473,5.0195,6.0776c0.8066,2.6299,0.541,5.417-0.748,7.8472
		l-7.1313,13.4418c0.4798,0.0226,0.9587,0.0392,1.4316,0.0309l8.5835,66.5951c0.5205,4.0352,3.9609,6.9785,7.9248,6.9785
		c0.3408,0,0.6855-0.022,1.0322-0.0664c4.3818-0.5649,7.4766-4.5752,6.9121-8.957l-5.4497-42.2824
		c-10.1412-5.4899-15.4316-17.6558-11.9767-29.0325c1.3676-4.5031,3.9413-8.4182,7.4019-11.4376
		c-0.7515-6.0022-4.088-12.4514-11.1893-17.5857c-17.3252-12.3727-29.4663-17.5884-51.4741-21.5688
		c-6.0181-0.6212-10.4644,0.3615-13.812,2.2871c-1.9688,0.7876-3.7676,2.0764-5.1729,3.8625l-32.0156,40.6875l-51.2822,9.9624
		c-6.7764,1.3164-11.2031,7.8774-9.8867,14.6543C85.2513,103.7231,90.4838,107.87,96.348,107.87z"></path>
	<path d="M248.1635,69.1039c2.0703-3.9028,0.585-8.7456-3.3184-10.8159c-3.9014-2.0718-8.7461-0.585-10.8164,3.3179
		l-19.0879,35.9805c-0.7891,1.4868-1.0879,3.1851-0.8564,4.8525l5.1191,36.7647c0.5576,4.002,3.9854,6.8979,7.9141,6.8979
		c0.3672,0,0.7393-0.0254,1.1133-0.0776c4.376-0.6089,7.4297-4.6504,6.8203-9.0264l-4.7627-34.2007L248.1635,69.1039z"></path>
	<path d="M253.723,77.5584c-3.611,11.8915,3.101,24.4562,14.9916,28.067c11.8906,3.6108,24.4559-3.1,28.067-14.9915
		c3.6105-11.8897-3.1009-24.4562-14.9916-28.067C269.8994,58.9561,257.3335,65.6688,253.723,77.5584z M276.6422,85.8604
		c6.7412,1.8733,11.3262,6.5549,10.2413,10.457c-1.0831,3.9032-5.4638-1.5186-12.2033-3.3909
		c-6.7411-1.8733-13.2887,0.5121-12.2059-3.3902C263.5591,85.6341,269.9023,83.9889,276.6422,85.8604z"></path>
	<path d="M286.7928,55.2371c0.7881-0.0044,1.5093-0.6514,1.5205-1.4795l0.126-9.2593l6.1919,8.895
		c0.2988,0.4302,0.8003,0.6743,1.3247,0.6401c0.5229-0.0327,0.9912-0.3359,1.2344-0.8003l3.8125-7.2676l2.2808,9.4712
		c0.1191,0.4941,0.4805,0.8945,0.96,1.0635c0.478,0.1699,1.0112,0.0835,1.4141-0.2266l10.249-7.8989l-3.4805,12.0078
		c-0.1362,0.4717-0.0337,0.98,0.2754,1.3618c0.3086,0.3813,0.7832,0.5884,1.2749,0.5518l11.3687-0.8306l-8.9736,8.7046
		c-0.3662,0.355-0.5269,0.8721-0.4263,1.3721s0.4482,0.915,0.9233,1.1011l9.9487,3.9004l-13.3027,3.896
		c-0.4438,0.1299-0.8027,0.457-0.9731,0.8862c-0.1704,0.4297-0.1328,0.9141,0.1006,1.3125l4.0024,6.8198l-7.4844-2.042
		c-0.7998-0.2178-1.624,0.2524-1.8423,1.0522c-0.2178,0.7993,0.2534,1.624,1.0522,1.8423l11.0361,3.0107
		c0.1309,0.0356,0.2637,0.0527,0.395,0.0527c0.4595,0,0.9028-0.2119,1.1914-0.5884c0.3706-0.4844,0.4111-1.145,0.1025-1.6709
		l-4.8926-8.3369l15.6704-4.5889c0.6157-0.1802,1.0488-0.7319,1.0771-1.373c0.0283-0.6406-0.354-1.2285-0.9512-1.4629
		l-11.8657-4.6523l10.2627-9.9551c0.4526-0.439,0.5825-1.1147,0.3242-1.6904c-0.2588-0.5752-0.8472-0.9312-1.478-0.8823
		l-13.334,0.9741l4.1572-14.3433c0.1802-0.623-0.0601-1.2915-0.5962-1.6572c-0.5366-0.3652-1.2466-0.3452-1.7603,0.0518
		l-12.0503,9.2871l-2.6729-11.1001c-0.1465-0.6074-0.6538-1.0605-1.2739-1.1377c-0.623-0.0732-1.2231,0.2378-1.5127,0.792
		l-4.5176,8.6118l-7.4473-10.6992c-0.373-0.5347-1.0483-0.7676-1.6704-0.5771c-0.623,0.1909-1.0518,0.7622-1.0605,1.4136
		l-0.1899,13.9277C285.3021,54.5452,285.9647,55.2259,286.7928,55.2371z"></path>
	<path d="M175.8695,19.5145c-2.335,1.8003-2.6738,4.7368-2.687,4.8608c-0.0586,0.5474,0.3364,1.0371,0.8838,1.0981
		c0.0376,0.0044,0.0747,0.0063,0.1113,0.0063c0.5015,0,0.9341-0.3779,0.9927-0.8877c0.0029-0.022,0.2759-2.2368,1.9341-3.5044
		c1.0615-0.8115,2.5015-1.0869,4.2788-0.8174c0.5454,0.0869,1.0562-0.293,1.1387-0.8389c0.0825-0.5464-0.293-1.0557-0.8389-1.1387
		C179.3363,17.9373,177.3812,18.3484,175.8695,19.5145z"></path>
	<path d="M169.7743,23.2249c0.0552,0.0088,0.1094,0.0132,0.1631,0.0132c0.48,0,0.9043-0.3477,0.9858-0.8364
		c0.0059-0.0352,0.6201-3.5381,3.4351-5.4976c1.8433-1.2842,4.2549-1.6523,7.167-1.0952c0.543,0.1025,1.0659-0.2529,1.1699-0.7949
		c0.1035-0.5425-0.2524-1.0659-0.7949-1.1699c-3.4692-0.6626-6.4004-0.1816-8.7056,1.4331
		c-3.5078,2.4565-4.2173,6.6265-4.2456,6.8032C168.8612,22.6243,169.2303,23.1356,169.7743,23.2249z"></path>
	<path d="M260.1088,31.6494c1.6802,0.3658,2.911-0.64,3.2147-2.0351c0.3114-1.43-0.4481-2.7565-2.201-3.1381
		c-1.5726-0.3424-2.911,0.64-3.1989,1.9623C257.6118,29.87,258.2845,31.2522,260.1088,31.6494z"></path>
	<path d="M266.4999,13.3044l0.8641-3.9685c0.2414-1.1085-0.1514-2.0549-1.868-2.4287c-1.6802-0.3658-2.4385,0.3665-2.6567,1.3688
		l-0.8796,4.0399l-1.7836,11.9704l2.9677,0.6462L266.4999,13.3044z"></path>
	<path d="M274.669,13.9601c0.1089-0.5004,0.3503-0.748,0.6873-0.7493c0.4968-0.0427,1.0685,0.0818,1.6766,0.2142
		c1.3937,0.3034,2.1404,1.1776,1.8287,2.6091c-0.4048,1.8591-1.5665,2.205-3.3531,3.0136c-2.487,1.1072-3.7864,1.9106-4.1536,4.9756
		l-0.3105,2.6294l3.7547,0.8175l0.3738-1.7166c0.4982-2.2883,1.0713-2.6877,3.5439-3.7218c3.007-1.256,4.4335-2.818,5.0173-5.4991
		c0.5372-2.4673-0.5048-5.7644-5.368-6.8233c-2.4672-0.5372-5.2405-0.3548-6.8548,0.0052l-1.1289,5.1847l3.8351,1.1337
		L274.669,13.9601z"></path>
	<path d="M271.5568,34.1039c1.6802,0.3658,2.9186-0.6749,3.2068-1.9987c0.319-1.4649-0.4496-2.7568-2.1647-3.1302
		c-1.574-0.3427-2.8954,0.5687-3.1989,1.9623C269.0883,32.3688,269.8038,33.7223,271.5568,34.1039z"></path>
	<path d="M285.8373,113.4759c0.646,0,1.2769-0.0972,1.8892-0.292c2.8096-0.894,4.1318-3.5381,4.1865-3.6499
		c0.2422-0.4946,0.0381-1.0898-0.4551-1.3345c-0.4932-0.2437-1.0923-0.0425-1.3394,0.4512c-0.0098,0.02-1.0234,2.0078-3.0151,2.6323
		c-1.2769,0.3994-2.7227,0.1655-4.3008-0.6943c-0.4849-0.2666-1.0923-0.0854-1.3564,0.3994
		c-0.2646,0.4849-0.0854,1.0923,0.3994,1.3564C283.2274,113.098,284.5629,113.4759,285.8373,113.4759z"></path>
	<path d="M279.7738,115.0799c-0.2827,0.4746-0.1274,1.0884,0.3467,1.3711c2.168,1.2925,4.2754,1.9419,6.293,1.9419
		c0.8076,0,1.6011-0.1045,2.3779-0.3125c4.1367-1.1099,6.2285-4.7866,6.3154-4.9424c0.2695-0.4824,0.0967-1.0913-0.3857-1.3604
		c-0.4824-0.271-1.0923-0.0977-1.3604,0.3857c-0.0176,0.0308-1.7583,3.0918-5.0874,3.9849
		c-2.1748,0.5835-4.5742,0.1079-7.1284-1.415C280.6708,114.4495,280.056,114.6053,279.7738,115.0799z"></path>
	<polygon points="181.8571,271.0305 176.6071,271.2805 175.6071,273.7805 180.3571,277.7805 184.8571,273.5305 	"></polygon>
	<polygon points="222.2402,273.9641 223.6406,280.014 229.7906,279.3135 228.8903,275.5136 224.5401,272.5639 	"></polygon>
	<polygon points="253.6572,276.6568 257.873,277.0607 258.7512,272.9316 256.0988,272.6913 253.2495,274.8663 	"></polygon>
	<polygon points="172.3571,273.8638 172.8571,270.1971 169.8571,269.0305 168.1904,272.5305 170.1904,273.6971 	"></polygon>
	<polygon points="239.6842,280.0442 241.2321,280.9471 243.3987,281.1138 243.8987,277.4471 240.8987,276.2805 240.0244,278.1168 
		239.2321,279.7805 	"></polygon>
	<polygon points="281.7737,275.3221 278.7737,274.1555 277.1071,277.6555 279.1071,278.8221 281.2737,278.9888 	"></polygon>
	<polygon points="288.1875,273.2028 284.3112,273.159 284.0916,275.4639 284.8497,277.5005 288.3876,276.4154 	"></polygon>
</g>
</svg>