<svg version="1.1" id="Layer_3" xmlns="http://www.w3.org/2000/svg" xmlns:xlink="http://www.w3.org/1999/xlink" x="0px" y="0px" viewBox="0 0 64 64" style="enable-background:new 0 0 64 64;" xml:space="preserve">
<g>
	<path d="M29.924,32.383c0.155-0.374,0.069-0.804-0.217-1.09l-8-8c-0.286-0.286-0.715-0.373-1.09-0.217
		C20.244,23.231,20,23.596,20,24v4c0,2.757,2.243,5,5,5h4C29.404,33,29.769,32.756,29.924,32.383z M25,31c-1.654,0-3-1.346-3-3
		v-1.586L26.586,31H25z"></path>
	<path d="M43.383,23.076c-0.375-0.156-0.804-0.069-1.09,0.217l-8,8c-0.286,0.286-0.372,0.716-0.217,1.09
		C34.231,32.756,34.596,33,35,33h4c2.757,0,5-2.243,5-5v-4C44,23.596,43.756,23.231,43.383,23.076z M42,28c0,1.654-1.346,3-3,3
		h-1.586L42,26.414V28z"></path>
	<path d="M31.293,36.293l-3,3l1.414,1.414L32,38.414l2.293,2.293l1.414-1.414l-3-3C32.316,35.902,31.684,35.902,31.293,36.293z"></path>
	<path d="M55.142,33c0.447,1.72,2,3,3.858,3c2.206,0,4-1.794,4-4s-1.794-4-4-4c-1.858,0-3.411,1.28-3.858,3H51
		c0-2.424-0.489-4.791-1.366-7H54c3.309,0,6-2.691,6-6v-2.142c1.72-0.447,3-2,3-3.858c0-2.206-1.794-4-4-4s-4,1.794-4,4
		c0,1.858,1.28,3.411,3,3.858V18c0,2.206-1.794,4-4,4h-5.294c-1.033-1.918-2.378-3.674-4.033-5.157
		c-4.077-3.651-9.343-5.325-14.829-4.724C23.557,12.813,18.176,16.652,15.282,22H10c-2.206,0-4-1.794-4-4v-2.142
		c1.72-0.447,3-2,3-3.858c0-2.206-1.794-4-4-4s-4,1.794-4,4c0,1.858,1.28,3.411,3,3.858V18c0,3.309,2.691,6,6,6h4.338
		c-0.622,1.563-1.048,3.222-1.23,4.952c-0.072,0.685-0.105,1.369-0.104,2.048H8.858c-0.447-1.72-2-3-3.858-3c-2.206,0-4,1.794-4,4
		s1.794,4,4,4c1.858,0,3.411-1.28,3.858-3h4.255c0.262,2.462,0.997,4.836,2.167,7H10c-3.309,0-6,2.691-6,6v2.142
		c-1.72,0.447-3,2-3,3.858c0,2.206,1.794,4,4,4s4-1.794,4-4c0-1.858-1.28-3.411-3-3.858V46c0-2.206,1.794-4,4-4h6.526
		c0.591,0.828,1.25,1.616,1.979,2.351C19.469,45.323,20,46.619,20,48c0,2.206,1.794,4,4,4h16c2.206,0,4-1.794,4-4
		c0-1.382,0.528-2.675,1.486-3.64c0.731-0.737,1.377-1.533,1.969-2.36H54c2.206,0,4,1.794,4,4v2.142c-1.72,0.447-3,2-3,3.858
		c0,2.206,1.794,4,4,4s4-1.794,4-4c0-1.858-1.28-3.411-3-3.858V46c0-3.309-2.691-6-6-6h-5.275c1.17-2.159,1.906-4.528,2.165-7
		H55.142z M59,30c1.103,0,2,0.897,2,2s-0.897,2-2,2s-2-0.897-2-2S57.897,30,59,30z M57,12c0-1.103,0.897-2,2-2s2,0.897,2,2
		s-0.897,2-2,2S57,13.103,57,12z M3,12c0-1.103,0.897-2,2-2s2,0.897,2,2s-0.897,2-2,2S3,13.103,3,12z M5,34c-1.103,0-2-0.897-2-2
		s0.897-2,2-2s2,0.897,2,2S6.103,34,5,34z M7,52c0,1.103-0.897,2-2,2s-2-0.897-2-2s0.897-2,2-2S7,50.897,7,52z M61,52
		c0,1.103-0.897,2-2,2s-2-0.897-2-2s0.897-2,2-2S61,50.897,61,52z M44.066,42.951C42.734,44.294,42,46.087,42,48
		c0,1.103-0.897,2-2,2h-1v-4h-2v4h-2v-4h-2v4h-2v-4h-2v4h-2v-4h-2v4h-1c-1.103,0-2-0.897-2-2c0-1.912-0.737-3.708-2.074-5.057
		c-3.607-3.639-5.367-8.662-4.829-13.782c0.826-7.857,7.12-14.188,14.966-15.053c0.658-0.073,1.312-0.109,1.96-0.109
		c4.196,0,8.156,1.505,11.315,4.334C46.937,21.556,49,26.173,49,31C49,35.501,47.248,39.746,44.066,42.951z"></path>
</g>
</svg>